<svg width="335" height="318" viewBox="0 0 335 318" fill="none" xmlns="http://www.w3.org/2000/svg">
<rect y="21" width="320" height="297" rx="10" fill="#0D3B66"/>
<g clip-path="url(#clip0_111_276)">
<path d="M267.48 12.1453C264.331 12.1453 261.796 13.6086 256.727 16.5351L151.324 77.3899C151.222 77.4487 151.121 77.5068 151.021 77.5645L149.768 73.8049L144.491 72.0977L143.715 73.3393V83.4275L143.729 83.4188C143.723 83.4782 143.72 83.5379 143.72 83.598C143.72 85.4163 146.255 86.8796 151.324 89.8061L223.512 131.484C228.581 134.411 231.116 135.874 234.265 135.874C237.414 135.874 239.949 134.411 245.018 131.484L350.421 70.6293C355.425 67.7404 357.959 66.2774 358.023 64.4911L358.05 64.4928V54.2494L353.86 55.491L348.935 57.3547L278.233 16.5351C273.164 13.6086 270.63 12.1453 267.48 12.1453Z" fill="#E44449"/>
<rect width="108.188" height="146.542" rx="6.20811" transform="matrix(0.866025 0.5 -0.866026 0.5 267.48 2.86102e-05)" fill="#F15156"/>
<g clip-path="url(#clip1_111_276)">
<path d="M215.597 84.3058C211.88 82.4472 207.774 79.3015 208.284 78.9227C208.769 78.5656 214.242 79.204 216.648 79.5057C215.796 80.2768 215.574 81.2365 215.444 82.1253C215.351 82.8621 215.389 83.5942 215.595 84.3049L215.597 84.3058Z" fill="#FA9700"/>
<path d="M215.445 82.1263C215.575 81.2375 215.796 80.2769 216.65 79.5067C217.338 79.593 217.777 79.6512 217.777 79.6512L217.894 85.288C217.18 85.0481 216.397 84.7065 215.598 84.3067C215.393 83.5951 215.353 82.8639 215.446 82.1271L215.445 82.1263Z" fill="#F27006"/>
<path d="M228.347 76.9442C229.039 77.4058 229.631 77.8578 230.047 78.2697L220.283 78.2024C220.283 78.2024 220.183 77.9487 220.033 77.5516C221.369 77.0594 223.03 76.9321 224.57 76.8559C225.847 76.8023 227.115 76.8242 228.346 76.9434L228.347 76.9442Z" fill="#F27006"/>
<path d="M219.023 72.7225C219.679 72.4278 225.126 74.7973 228.347 76.9442C227.116 76.825 225.848 76.803 224.572 76.8567C223.031 76.9328 221.367 77.0601 220.034 77.5523C219.513 76.1619 218.405 73.002 219.025 72.7233L219.023 72.7225Z" fill="#FA9700"/>
<path d="M242.632 89.9605C241.379 91.9958 238.047 93.1835 234.719 94.0674L228.004 89.6942L236.786 83.8664C238.171 84.1013 239.567 84.3577 240.965 84.6315C242.703 86.2317 243.751 88.1 242.631 89.9613L242.632 89.9605Z" fill="#F27006"/>
<path d="M242.632 89.9604C243.751 88.1 242.703 86.2316 240.966 84.6307C257.517 87.8696 274.321 93.4862 274.321 93.4862L252.856 105.879L234.72 94.0682C238.049 93.1843 241.379 91.9974 242.634 89.9613L242.632 89.9604Z" fill="#FA9700"/>
<path d="M208.248 79.0623C210.759 79.0332 213.037 80.2047 214.547 81.364C215.828 82.3738 216.286 83.4921 216.308 84.6494C212.713 82.9971 208.43 79.8404 208.247 79.0632L208.248 79.0623Z" fill="#FEB8AC"/>
<path d="M219.265 72.7016C219.215 74.1513 221.243 75.4673 223.252 76.3383C225.001 77.0775 226.938 77.3419 228.943 77.3545C226.081 75.2795 220.613 72.8062 219.267 72.7007L219.265 72.7016Z" fill="#FEB8AC"/>
<path d="M240.273 91.1905C245.616 88.1058 237.438 82.2294 233.423 79.4503C229.407 76.6721 222.416 76.3672 218.508 78.6239C214.599 80.8806 215.127 84.9168 219.939 87.2355C224.751 89.5542 234.931 94.2751 240.273 91.1905Z" fill="#FFF3DB"/>
<path d="M219.429 78.1646C223.439 76.4281 229.704 76.8785 233.421 79.4502C235.426 80.8369 238.468 82.9976 240.346 85.1967C235.616 83.5618 230.633 84.2624 228.189 83.1771C225.796 82.1148 221.332 79.359 219.427 78.1638L219.429 78.1646Z" fill="#FA9700"/>
<path d="M217.711 79.1565C219.779 80.2573 224.554 82.8335 226.394 84.2149C228.274 85.6261 227.06 88.5031 229.892 91.2341C226.083 90.1497 222.342 88.3924 219.939 87.2356C215.483 85.0891 214.704 81.473 217.712 79.1573L217.711 79.1565Z" fill="#FA9700"/>
<path d="M225.729 86.2389C225.01 86.6541 223.673 86.5303 222.681 85.9577C222.554 85.8843 222.555 85.7648 222.684 85.6904C222.813 85.616 223.02 85.6153 223.147 85.6887C223.856 86.0979 224.828 86.228 225.271 85.9724C225.713 85.7167 225.487 85.1563 224.778 84.7471C224.651 84.6737 224.652 84.5541 224.781 84.4798C224.909 84.4054 225.117 84.4046 225.244 84.4781C226.235 85.0506 226.448 85.8236 225.731 86.238L225.729 86.2389Z" fill="#593A42"/>
<path d="M232.264 82.4656C231.547 82.8801 230.208 82.7571 229.216 82.1845C229.089 82.1111 229.09 81.9915 229.219 81.9172C229.348 81.8428 229.555 81.8421 229.682 81.9155C230.391 82.3247 231.363 82.4548 231.806 82.1992C232.249 81.9435 232.022 81.3831 231.313 80.9739C231.186 80.9005 231.187 80.7809 231.316 80.7065C231.445 80.6322 231.652 80.6314 231.779 80.7049C232.771 81.2774 232.984 82.0504 232.266 82.4648L232.264 82.4656Z" fill="#593A42"/>
<path d="M239.587 87.9053C240.673 88.5323 240.432 89.688 239.052 90.485C237.671 91.2821 235.668 91.4223 234.582 90.7953C233.496 90.1682 233.736 89.0134 235.119 88.2146C236.502 87.4159 238.501 87.2782 239.587 87.9053Z" fill="#593A42"/>
<path d="M234.6 88.907C234.204 89.2904 234.176 89.7538 234.487 90.1536C234.704 90.4343 235.425 90.1925 235.21 89.9144C235.017 89.6677 235.081 89.3719 235.319 89.1402C235.592 88.8735 234.876 88.6404 234.601 88.9062L234.6 88.907Z" fill="#936170"/>
<path d="M235.009 90.268C234.826 90.3293 234.723 90.4874 234.849 90.5949C234.911 90.6478 234.967 90.7015 235.029 90.7544C235.156 90.8611 235.383 90.9117 235.594 90.8429C235.775 90.7824 235.881 90.6227 235.753 90.5169C235.69 90.4639 235.633 90.4094 235.572 90.3573C235.445 90.2506 235.218 90.2 235.007 90.2688L235.009 90.268Z" fill="#936170"/>
<path d="M247.643 99.1967C245.481 97.3466 237.178 89.5503 247.05 90.4425C251.412 90.8251 255.534 92.2024 259.138 93.4827C262.232 94.569 265.209 95.8068 268.107 97.0739L254.991 104.647C252.413 102.886 249.899 101.097 247.643 99.1967Z" fill="#FFF3DB"/>
<path d="M294.364 41.9579C294.508 41.9457 296.505 42.5777 297.726 42.9701L296.21 44.6917L294.859 43.9112C294.859 43.9112 294.157 41.9752 294.364 41.9579Z" fill="#FEB8AC"/>
<path d="M291.248 45.2437C290.958 44.8006 291.651 41.3875 292.899 40.8699C294.147 40.3522 298.46 42.1389 298.46 42.1389L297.729 42.9702C296.507 42.5769 294.511 41.9458 294.367 41.9579C294.16 41.9753 294.862 43.9113 294.862 43.9113C294.862 43.9113 295.207 46.2911 295.028 46.4968C294.848 46.7025 291.541 45.6868 291.251 45.2437L291.248 45.2437Z" fill="#352328"/>
<path d="M297.972 36.583C297.706 36.5333 295.475 37.3791 295.475 37.3791C295.475 37.3791 294.435 37.8097 294.229 37.7589C294.022 37.7082 294.189 36.4307 294.986 35.9853C297.52 35.4597 304.391 36.3371 310.805 42.2041L309.266 42.0976C303.353 37.3288 297.973 36.5821 297.973 36.5821L297.972 36.583Z" fill="#352328"/>
<path d="M295.477 37.3782C295.477 37.3782 297.706 36.5316 297.973 36.5821C297.973 36.5821 303.353 37.3288 309.266 42.0976L300.048 41.4579L295.477 37.3782Z" fill="#FEB8AC"/>
<path d="M293.376 52.2388C291.875 50.8827 296.209 47.3177 296.209 47.3177C293.573 41.979 300.503 39.7171 307.481 40.81C314.459 41.9028 339.825 55.6676 339.825 55.6676L324.266 64.6509L305.953 50.4353C298.485 54.612 294.876 53.5949 293.376 52.2388Z" fill="#593A42"/>
<path d="M332.963 59.6294L324.266 64.6508L305.954 50.4352C305.954 50.4352 307.198 49.8703 308.58 48.9487C308.58 48.9487 326.686 56.9142 332.963 59.6294Z" fill="#352328"/>
<path d="M300.297 45.1409C301.64 45.9164 303.609 46.0371 304.693 45.4113C305.776 44.7855 305.567 43.6489 304.224 42.8734C302.881 42.0979 300.912 41.9772 299.828 42.603C298.744 43.2288 298.953 44.3654 300.297 45.1409Z" fill="#352328"/>
<path d="M301.458 44.4707C301.879 44.7141 302.455 44.7776 302.743 44.6113C303.031 44.445 302.922 44.1133 302.499 43.8691C302.077 43.6249 301.502 43.5623 301.214 43.7285C300.926 43.8948 301.035 44.2265 301.458 44.4707Z" fill="#191113"/>
<path d="M297.983 46.3166C298.405 46.56 298.979 46.6226 299.267 46.4564C299.555 46.2901 299.447 45.9584 299.025 45.715C298.604 45.4717 298.028 45.4082 297.74 45.5744C297.452 45.7407 297.56 46.0724 297.983 46.3166Z" fill="#191113"/>
<path d="M292.877 52.2331C293.729 52.7248 295.3 52.6161 296.384 51.9903C297.468 51.3645 297.656 50.4572 296.804 49.9655C295.953 49.4738 294.381 49.5825 293.297 50.2083C292.214 50.8341 292.024 51.7405 292.877 52.2331Z" fill="#191113"/>
<path d="M294.148 50.0258C294.669 49.847 295.299 49.8331 295.844 49.9739C296.225 50.0722 295.897 50.3988 295.52 50.3014C295.184 50.2146 294.781 50.2427 294.468 50.3509C294.107 50.4751 293.787 50.15 294.151 50.0258L294.148 50.0258Z" fill="#593A42"/>
<path d="M295.998 50.2117C296.081 50.1292 296.297 50.0819 296.442 50.1403C296.514 50.1683 296.588 50.1946 296.66 50.2225C296.804 50.2809 296.874 50.3828 296.778 50.4778C296.695 50.5603 296.479 50.6076 296.334 50.5492C296.264 50.5204 296.188 50.4949 296.116 50.4669C295.972 50.4085 295.902 50.3067 295.997 50.2108L295.998 50.2117Z" fill="#593A42"/>
<path d="M303.857 48.5766C303.857 48.5766 307.638 47.7998 308.511 49.0262C309.385 50.2526 303.123 50.3302 303.123 50.3302C303.123 50.3302 303.836 49.7041 303.859 48.5774L303.857 48.5766Z" fill="#FEB8AC"/>
<path d="M306.718 49.4429C305.726 49.4283 304.687 49.5035 303.733 49.6763C303.533 49.7127 303.453 49.5312 303.653 49.4948C304.627 49.3185 305.705 49.2407 306.72 49.2553C306.928 49.2587 306.928 49.4455 306.718 49.4429Z" fill="#FC8686"/>
<path d="M303.465 47.4946C304.135 48.2443 304.16 49.0321 303.682 49.8292C303.032 50.9158 301.655 51.5344 299.954 52.0578C299.769 52.115 299.608 51.952 299.794 51.8957C301.309 51.4302 302.5 50.9178 303.223 49.9936C303.839 49.2076 303.862 48.3508 303.181 47.5894C303.085 47.4827 303.368 47.3887 303.463 47.4954L303.465 47.4946Z" fill="#352328"/>
<path d="M279.504 60.1333C279.528 60.5616 279.577 60.9823 279.685 61.3937C275.872 58.7177 274.727 56.3043 275.272 55.9885C275.95 55.5966 279.119 56.6561 280.987 57.3383C279.871 58.1809 279.459 58.996 279.506 60.1325L279.504 60.1333Z" fill="#FA9700"/>
<path d="M279.504 60.1333C279.458 58.9969 279.871 58.1826 280.986 57.3392C281.803 57.6376 282.373 57.8646 282.373 57.8646L280.972 62.2425C280.512 61.9586 280.084 61.6746 279.683 61.3946C279.577 60.9823 279.527 60.5624 279.503 60.1341L279.504 60.1333Z" fill="#FF740C"/>
<path d="M293.591 53.7887C293.946 53.9635 294.303 54.1465 294.661 54.3394L287.078 55.1483C287.078 55.1483 286.722 54.8507 286.243 54.4158C287.359 54.0738 288.75 53.9077 289.864 53.7758C291.085 53.6518 292.367 53.6604 293.591 53.7904L293.591 53.7887Z" fill="#FF740C"/>
<path d="M283.83 51.0474C284.39 50.724 288.801 51.4344 293.592 53.7897C292.369 53.6596 291.086 53.651 289.865 53.775C288.752 53.9078 287.36 54.0731 286.245 54.4151C285.067 53.3475 283.137 51.4476 283.831 51.0465L283.83 51.0474Z" fill="#FA9700"/>
<path d="M276.412 56.6485C276.587 56.5026 281.438 58.1403 281.498 58.4573C281.558 58.7742 281.071 61.0732 280.691 60.9874C280.31 60.9008 276.065 56.9362 276.413 56.6477L276.412 56.6485Z" fill="#FEB8AC"/>
<path d="M284.972 51.7064C284.719 51.8078 287.555 54.6086 288.104 54.6431C288.653 54.6777 292.635 54.3966 292.487 54.1772C292.337 53.9569 285.47 51.5062 284.97 51.7073L284.972 51.7064Z" fill="#FEB8AC"/>
<path d="M305.501 75.4847C305.501 75.4847 287.919 68.7394 282.857 64.4199C277.795 60.1005 281.887 56.9622 283.702 55.9145C285.517 54.8668 290.952 52.5041 298.432 55.4274C305.914 58.3499 317.597 68.5008 317.597 68.5008L305.499 75.4856L305.501 75.4847Z" fill="#FFF3DB"/>
<path d="M283.982 55.7592C286.032 54.6566 291.301 52.6424 298.432 55.4275C305.914 58.35 317.597 68.5009 317.597 68.5009L317.238 68.7081C310.436 61.4842 297.818 54.7606 283.982 55.7592Z" fill="#FFF9EE"/>
<path d="M290.386 59.0368C287.73 58.4205 284.993 56.2204 284.454 56.5312C283.916 56.8421 287.728 58.4213 288.794 59.9559C289.621 61.1417 284.057 62.4746 281.492 63.0186C278.687 59.4273 282.088 56.8462 283.7 55.9155C285.313 54.9847 289.698 53.0551 295.831 54.5944C295.001 55.9399 292.55 59.5395 290.386 59.0368Z" fill="#FA9700"/>
<path d="M287.55 67.4457C289.728 68.1484 292.121 68.6544 294.621 69.0297C299.63 69.786 304.756 70.209 309.26 71.7401C309.73 71.8962 310.343 72.0932 310.972 72.3258L305.5 75.4849C305.5 75.4849 294.659 71.3243 287.55 67.4457Z" fill="#FA9700"/>
<path d="M306.416 62.2195C305.766 60.7765 304.889 59.394 303.673 58.1373C310.389 62.2407 317.597 68.5009 317.597 68.5009L312.125 71.6599C311.724 71.2961 311.381 70.9428 311.111 70.6715C308.459 68.0726 307.725 65.1122 306.416 62.2195Z" fill="#FA9700"/>
<path d="M283.981 55.7584C285.773 54.7946 290.026 53.1361 295.831 54.5944C295.558 55.0396 295.104 55.7303 294.544 56.438C291.162 55.7654 287.614 55.4961 283.98 55.7593L283.981 55.7584Z" fill="#FF9E10"/>
<path d="M317.597 68.5009L317.238 68.7081C314.233 65.5177 310.095 62.4253 305.219 60.0529C304.775 59.3903 304.266 58.7487 303.674 58.1382C310.391 62.2416 317.598 68.5017 317.598 68.5017L317.597 68.5009Z" fill="#FF9E10"/>
<path d="M289.94 57.8553C290.028 57.8044 290.029 57.723 289.942 57.6727C289.456 57.3922 289.302 57.0075 289.605 56.8329C289.907 56.6583 290.573 56.7472 291.059 57.0277C291.146 57.078 291.287 57.0775 291.376 57.0265C291.464 56.9755 291.465 56.8942 291.378 56.8438C290.699 56.452 289.782 56.3673 289.29 56.6514C288.798 56.9354 288.945 57.4646 289.624 57.8565C289.711 57.9068 289.852 57.9063 289.94 57.8553Z" fill="#593A42"/>
<path d="M285.655 60.3293C285.743 60.2783 285.744 60.1969 285.657 60.1466C285.171 59.8661 285.017 59.4814 285.32 59.3068C285.622 59.1322 286.288 59.2211 286.774 59.5016C286.861 59.5519 287.002 59.5514 287.091 59.5004C287.179 59.4495 287.18 59.3681 287.093 59.3178C286.414 58.9259 285.497 58.8413 285.005 59.1253C284.513 59.4094 284.66 59.9385 285.339 60.3304C285.426 60.3807 285.567 60.3802 285.655 60.3293Z" fill="#593A42"/>
<path d="M294.532 58.8507C295.058 59.9679 294.483 60.9862 292.993 61.767C291.541 62.5295 289.194 62.8054 287.571 62.0923C287.408 62.0199 287.568 61.8565 287.734 61.929C289.367 62.6462 291.524 62.2871 292.941 61.5431C294.27 60.845 294.678 59.8738 294.218 58.8983C294.163 58.7814 294.479 58.733 294.534 58.8498L294.532 58.8507Z" fill="#593A42"/>
<path d="M293.05 61.5824C292.45 61.2392 291.919 60.8526 291.223 60.5679C291.054 60.4988 291.216 60.3346 291.386 60.4046C292.108 60.6992 292.657 61.0932 293.282 61.4487C293.429 61.5337 293.199 61.6666 293.05 61.5824Z" fill="#593A42"/>
<path d="M288.384 61.0491C289.235 61.5408 290.807 61.4321 291.891 60.8063C292.975 60.1806 293.164 59.2741 292.311 58.7816C291.458 58.289 289.888 58.3985 288.804 59.0243C287.72 59.6501 287.531 60.5566 288.384 61.0491Z" fill="#593A42"/>
<path d="M289.744 58.7883C290.265 58.6096 290.895 58.5956 291.44 58.7364C291.822 58.8347 291.493 59.1613 291.116 59.0639C290.78 58.9771 290.377 59.0052 290.064 59.1134C289.702 59.2384 289.383 58.9125 289.747 58.7883L289.744 58.7883Z" fill="#936170"/>
<path d="M291.596 58.9732C291.679 58.8907 291.895 58.8434 292.04 58.9019C292.111 58.9298 292.187 58.9553 292.257 58.9841C292.402 59.0425 292.471 59.1444 292.377 59.2402C292.295 59.3235 292.078 59.37 291.933 59.3115C291.863 59.2827 291.789 59.2581 291.716 59.2293C291.571 59.1725 291.502 59.069 291.598 58.974L291.596 58.9732Z" fill="#936170"/>
<path d="M256.274 55.9312C257.304 55.5231 253.121 52.2025 254.64 50.6644C256.158 49.1263 258.966 46.6403 256.434 46.716C253.904 46.7908 248.093 49.5334 248.68 51.3993C249.269 53.2652 253.86 56.8898 256.276 55.932L256.274 55.9312Z" fill="#352328"/>
<path d="M248.677 51.3978C248.089 49.5328 253.902 46.7901 256.431 46.7145C257.05 46.6956 257.347 46.8324 257.425 47.0679C257.027 47.281 256.654 47.5115 256.306 47.7685C253.863 49.4561 251.827 52.7653 252.482 55.1507C250.674 54.1203 249.014 52.4701 248.677 51.3978Z" fill="#593A42"/>
<path d="M260.911 63.7817C262.952 63.6787 265.348 63.0299 265.348 63.0299C270.488 66.2117 278.303 69.1396 285.547 71.4453C268.169 70.255 260.912 63.7825 260.912 63.7825L260.911 63.7817Z" fill="#EFDCBD"/>
<path d="M251.313 64.2625C247.763 61.1886 244.934 57.761 251.601 55.1132C258.268 52.4654 263.366 55.9752 263.199 56.0713C263.033 56.1674 275.324 56.409 274.042 59.2987C272.761 62.1884 265.346 63.0291 265.346 63.0291C265.346 63.0291 262.951 63.6779 260.909 63.7808C260.909 63.7808 268.166 70.2533 285.544 71.4436C295.17 74.506 303.788 76.4705 303.788 76.4705L284.24 87.7564C270.813 80.5808 254.972 67.4314 251.313 64.2608L251.313 64.2625Z" fill="#FFF3DB"/>
<path d="M258.812 62.2692C258.812 62.2692 255.531 63.3222 256.447 64.4414C257.365 65.5613 261.36 63.0635 261.36 63.0635C261.36 63.0635 260.168 62.9633 258.812 62.2692Z" fill="#FEB8AC"/>
<path d="M273.053 56.6904C273.976 57.2234 273.771 58.2046 272.596 58.883C271.421 59.5614 269.722 59.6797 268.799 59.1468C267.876 58.6138 268.08 57.6326 269.255 56.9541C270.431 56.2757 272.132 56.1583 273.053 56.6904Z" fill="#593A42"/>
<path d="M259.81 59.1339C260.421 58.7814 260.238 58.1245 259.396 57.6386C259.289 57.5767 259.112 57.5765 259.002 57.64C258.892 57.7035 258.891 57.8048 259 57.8675C259.603 58.2156 259.795 58.6923 259.418 58.9096C259.042 59.1268 258.216 59.0161 257.613 58.6679C257.506 58.606 257.329 58.6058 257.219 58.6693C257.109 58.7328 257.108 58.8341 257.217 58.8968C258.059 59.3828 259.196 59.4882 259.807 59.1356L259.81 59.1339Z" fill="#593A42"/>
<path d="M263.405 57.0585C264.015 56.7059 263.833 56.0491 262.991 55.5631C262.884 55.5012 262.707 55.5011 262.597 55.5646C262.487 55.6281 262.486 55.7293 262.594 55.792C263.197 56.1402 263.389 56.6169 263.013 56.8341C262.637 57.0513 261.811 56.9406 261.208 56.5925C261.101 56.5306 260.924 56.5304 260.814 56.5939C260.704 56.6574 260.703 56.7587 260.812 56.8214C261.653 57.3073 262.791 57.4128 263.402 57.0602L263.405 57.0585Z" fill="#593A42"/>
<path d="M257.843 63.8518C258.466 63.4277 259.224 63.0497 260.042 62.7537C260.21 62.6933 260.358 62.8455 260.19 62.9059C259.393 63.1927 258.664 63.5607 258.056 63.9747C257.928 64.0615 257.717 63.9377 257.843 63.8518Z" fill="#FC8686"/>
<path d="M268.815 57.5419C268.479 57.8677 268.455 58.2613 268.717 58.6016C268.903 58.8392 269.515 58.6344 269.332 58.3984C269.167 58.1882 269.222 57.9372 269.425 57.7406C269.658 57.5139 269.047 57.3152 268.815 57.5419Z" fill="#936170"/>
<path d="M269.163 58.6987C269.007 58.7508 268.919 58.8856 269.028 58.9765C269.082 59.0212 269.129 59.0683 269.182 59.1121C269.288 59.2022 269.482 59.2455 269.661 59.1868C269.815 59.1355 269.905 58.9999 269.796 58.909C269.742 58.8643 269.695 58.8172 269.643 58.7734C269.536 58.6833 269.342 58.64 269.165 58.6979L269.163 58.6987Z" fill="#936170"/>
<path d="M250.914 59.1647C251.489 58.5259 245.369 56.4261 245.449 54.6658C245.525 52.9054 245.643 50.3097 243.463 51.0698C241.284 51.83 238.396 55.8222 240.453 57.2909C242.511 58.7595 249.565 60.6649 250.915 59.1656L250.914 59.1647Z" fill="#352328"/>
<path d="M279.948 74.1696C277.076 72.9173 277.115 70.781 278.596 69.0795C280.902 69.9229 283.253 70.7155 285.546 71.446C287.65 72.1158 289.708 72.7326 291.636 73.2893C288.981 75.0184 282.906 75.4947 279.948 74.1713L279.948 74.1696Z" fill="#593A42"/>
<path d="M256.874 66.4836C258.351 67.8564 259.366 69.2309 258.826 70.4317C255.276 67.6269 252.573 65.3544 251.314 64.2631C250.68 63.7133 250.068 63.1527 249.531 62.5868C253.13 62.9788 254.588 64.2686 256.874 66.4836Z" fill="#593A42"/>
<path d="M292.532 82.9722L284.243 87.758C281.345 86.2086 278.332 84.3806 275.355 82.4346C276.543 81.9305 277.973 81.4977 279.511 81.1011C284.653 79.8137 289.773 80.4053 292.535 82.9722L292.532 82.9722Z" fill="#593A42"/>
<path d="M258.058 61.3844C258.642 62.2698 259.891 62.7451 261.431 62.9827C262.769 63.1887 264.055 62.9566 265.313 62.6838C265.496 62.6441 265.57 62.8141 265.389 62.8529C263.934 63.1695 262.612 63.3471 261.092 63.1127C259.543 62.8734 258.339 62.2983 257.766 61.4311C257.696 61.326 257.992 61.2809 258.06 61.3852L258.058 61.3844Z" fill="#593A42"/>
<path d="M278.596 69.0795L278.599 69.0812C279.15 69.2826 279.702 69.4806 280.256 69.6754C280.359 69.7115 280.463 69.7477 280.566 69.7838C280.998 69.935 281.431 70.0846 281.862 70.2316C282.02 70.2858 282.177 70.3384 282.334 70.3918C282.726 70.5248 283.12 70.6554 283.513 70.7851C283.665 70.8361 283.818 70.8861 283.97 70.9354C284.497 71.1078 285.023 71.2794 285.545 71.4452C282.678 71.249 280.087 70.9081 277.757 70.4765C277.922 69.9969 278.207 69.5235 278.593 69.0795L278.596 69.0795Z" fill="#352328"/>
<path d="M240.452 57.29C238.394 55.8214 241.284 51.8299 243.462 51.069C244.088 50.8508 244.524 50.9099 244.826 51.1462C244.174 52.5259 243.794 53.9544 244.059 55.3624C244.531 57.6919 247.229 58.7365 250.5 59.4501C248.498 60.3699 242.35 58.6447 240.452 57.29Z" fill="#593A42"/>
<path d="M288.359 85.3821C288.359 85.3821 273.73 75.8181 261.754 74.1507C249.778 72.4849 247.135 77.1538 248.138 80.1423C248.138 80.1423 247.069 83.0528 244.091 84.6884C244.091 84.6884 250.729 86.9722 254.187 82.258C254.187 82.258 259.546 79.5884 266.401 82.4268C273.255 85.2661 273.756 93.8131 273.756 93.8131L288.359 85.3821Z" fill="#FF740C"/>
<path d="M248.082 80.2835C252.709 79.7403 254.187 82.258 254.187 82.258C250.731 86.973 244.091 84.6883 244.091 84.6883C246.682 83.2667 247.826 80.8814 248.08 80.2827L248.082 80.2835Z" fill="#FFF3DB"/>
<path d="M271.377 81.62C278.998 83.099 283.441 85.307 285.799 86.8601L273.754 93.8139C273.754 93.8139 273.255 85.2661 266.4 82.4277C259.546 79.5884 254.186 82.2589 254.186 82.2589C254.186 82.2589 258.513 79.1239 271.375 81.6208L271.377 81.62Z" fill="#ED4714"/>
<path d="M243.426 85.3874C244.648 85.4095 245.669 85.0296 245.706 84.538C245.743 84.0481 244.781 83.6331 243.559 83.611C242.337 83.5889 241.317 83.9695 241.28 84.4595C241.243 84.9495 242.205 85.3644 243.427 85.3865L243.426 85.3874Z" fill="#593A42"/>
<path d="M251.28 75.9406C251.037 75.6567 251.914 73.9225 252.789 73.7773C253.663 73.6322 260.001 76.1902 260.341 77.2367C260.677 78.2833 253.786 76.4952 253.159 76.4576C252.531 76.4192 254.129 77.2195 253.638 77.3019C253.148 77.385 251.831 76.5828 251.28 75.9406Z" fill="#593A42"/>
<path d="M250.101 79.4676C250.505 79.7011 251.042 79.7705 251.3 79.6218C251.558 79.4731 251.437 79.163 251.033 78.9295C250.629 78.696 250.091 78.6266 249.834 78.7753C249.576 78.924 249.695 79.2333 250.101 79.4676Z" fill="#593A42"/>
<path d="M250.789 81.2584C252.044 81.5353 253.234 82.2806 252.265 83.0513C252.104 83.1789 251.732 83.0599 251.895 82.9314C252.686 82.3017 251.697 81.7225 250.678 81.4971C250.426 81.4415 250.535 81.202 250.789 81.2584Z" fill="#593A42"/>
<path d="M242.308 83.8563C242.517 83.8215 242.72 83.7983 242.938 83.7992C243.491 83.8005 243.443 84.293 242.894 84.2917C242.752 84.2914 242.618 84.3159 242.482 84.338C241.952 84.4263 241.781 83.9446 242.309 83.8571L242.308 83.8563Z" fill="#936170"/>
<path d="M243.753 83.7548C243.921 83.7434 244.061 83.747 244.226 83.7655C244.454 83.7921 244.567 83.9544 244.503 84.0725C244.427 84.2106 244.195 84.2621 243.968 84.2363C243.953 84.2364 243.94 84.2356 243.926 84.2357C243.696 84.2514 243.472 84.1892 243.422 84.0482C243.38 83.9271 243.523 83.7705 243.753 83.7548Z" fill="#936170"/>
<path d="M231.288 97.5644C231.288 97.5644 230.019 96.6848 229.216 95.7064C229.951 95.7245 230.69 95.7052 231.417 95.637L231.886 96.957L231.287 97.5652L231.288 97.5644Z" fill="#EFDCBD"/>
<path d="M229.218 95.7057C228.976 95.4126 228.778 95.1112 228.669 94.821C228.63 94.7165 228.61 94.6095 228.602 94.4999C228.349 94.3855 228.115 94.2302 228.064 94.0619C228.02 93.9566 228.07 93.8385 228.287 93.8386C228.456 93.8388 228.577 93.9222 228.673 93.9941C228.674 93.9899 228.677 93.9866 228.676 93.9824C228.44 93.7326 228.066 93.4799 228.049 93.1894C228.051 93.064 228.166 92.9797 228.387 93.0238C228.655 93.0751 228.83 93.2729 228.967 93.4002C228.952 93.2583 228.843 92.5231 229.013 92.3639C229.168 92.2231 229.318 92.3329 229.391 92.4456C229.471 92.5632 229.486 92.6943 229.483 92.8247C230.24 92.132 231.327 91.6581 232.127 91.8611C233.773 92.2768 231.032 94.5608 231.032 94.5608L231.414 95.6354C230.687 95.7036 229.946 95.7221 229.213 95.7049L229.218 95.7057Z" fill="#FFF3DB"/>
<path d="M225.998 98.4388C225.998 98.4388 225.119 96.9401 225.803 96.8388C226.486 96.7383 226.943 97.8932 226.943 97.8932C226.943 97.8932 227.492 96.0796 228.291 96.2436C229.092 96.4084 228.439 97.6171 228.439 97.6171C228.439 97.6171 231.993 96.25 232.976 95.9758C233.96 95.7015 235.88 95.5717 235.143 96.6819L236.747 98.0542C236.747 98.0542 239.714 95.7536 241.881 96.5585C244.047 97.3626 244.419 98.4197 244.076 98.6177C243.733 98.8158 242.967 98.6708 242.967 98.6708C242.967 98.6708 244.684 99.4516 244.2 99.929C243.879 100.247 242.697 99.8532 242.697 99.8532C242.697 99.8532 244.199 101.023 243.447 101.426C243.047 101.641 241.824 101.094 241.824 101.094C241.824 101.094 242.157 102.514 241.259 102.689C240.363 102.865 237.976 102.579 237.976 102.579C237.976 102.579 242.612 103.669 243.881 104.599C245.149 105.53 244.592 105.902 243.568 105.906C243.568 105.906 246.368 107.225 247.5 108.968L236.986 115.039C236.986 115.039 227.07 101.586 225.892 100.112C225.892 100.112 222.939 98.9148 223.481 98.3724C224.015 97.8383 225.995 98.4371 225.995 98.4371L225.998 98.4388Z" fill="#FFF3DB"/>
<path d="M244.242 109.075C243.203 108.335 239.837 106.766 242.542 106.082C241.459 105.737 238.889 105.002 240.989 104.39C239.984 104.231 236.204 103.686 236.293 102.895C236.351 102.332 238.049 102.489 239.463 102.713C238.678 102.665 237.976 102.58 237.976 102.58C237.976 102.58 242.612 103.671 243.881 104.601C245.149 105.532 244.592 105.904 243.568 105.907C243.568 105.907 246.368 107.226 247.5 108.97L242.279 111.984C241.882 111.651 241.602 111.281 241.523 110.875C241.332 109.969 242.592 109.01 244.242 109.074L244.242 109.075Z" fill="#EFDCBD"/>
<path d="M231.847 92.2439C232.317 92.7444 230.635 94.4268 230.635 94.4268L231.28 97.1052C231.28 97.1052 229.34 94.7586 229.233 94.4776C229.125 94.1965 231.254 91.6176 231.844 92.2439L231.847 92.2439Z" fill="#FEB8AC"/>
<path d="M220.322 99.4309C220.45 99.3665 220.639 99.3833 220.792 99.4001C220.788 99.3977 220.787 99.3935 220.782 99.3894C220.317 99.2931 219.744 99.2479 219.4 99.0374C219.26 98.9433 219.25 98.837 219.467 98.7856C219.73 98.7216 220.09 98.8024 220.338 98.8455C220.165 98.7457 219.245 98.2393 219.192 98.0568C219.149 97.8935 219.391 97.9175 219.574 97.9733C219.769 98.0307 219.931 98.1222 220.078 98.2205C219.862 97.4176 220.149 96.6511 220.989 96.4978C222.717 96.1818 223.236 98.923 223.236 98.923L226.615 100.381L226.854 101.062C226.854 101.062 223.528 100.771 221.73 100.017C221.581 99.9543 221.444 99.8818 221.314 99.8034C220.991 99.8137 220.636 99.7876 220.404 99.6822C220.252 99.6196 220.155 99.5137 220.319 99.4309L220.322 99.4309Z" fill="#FFF3DB"/>
<path d="M221.21 96.8905C222.138 97.0839 222.777 98.9753 222.777 98.9753L226.346 100.541C226.346 100.541 222.171 99.7131 221.769 99.5444C221.366 99.3756 220.043 96.6465 221.21 96.8889L221.21 96.8905Z" fill="#FEB8AC"/>
<path d="M232.414 99.0117C232.463 99.1302 232.428 99.2383 232.312 99.3317C231.982 99.5977 231.172 99.6131 229.901 99.372C229.839 99.3598 229.807 99.3225 229.829 99.2868C229.848 99.251 229.915 99.2317 229.977 99.2439C231.427 99.5176 231.944 99.3986 232.123 99.2543C232.199 99.1934 232.22 99.1253 232.187 99.0457C232.091 98.8169 231.574 98.5614 231.235 98.4647C231.188 98.4508 231.161 98.4201 231.174 98.3894C231.186 98.3594 231.232 98.3377 231.287 98.3358C231.658 98.3278 232.042 98.3538 232.462 98.4146C232.533 98.4251 232.606 98.4356 232.681 98.447C233.058 98.5045 233.486 98.5711 233.839 98.5108C233.961 98.4896 234.045 98.4511 234.086 98.3962C234.134 98.3304 234.121 98.2441 234.044 98.1581C233.891 97.9727 233.553 97.8743 233.224 97.7783L233.153 97.757C233.107 97.7439 233.081 97.7141 233.092 97.6833C233.102 97.6542 233.144 97.6317 233.197 97.629C233.285 97.6245 233.373 97.62 233.462 97.6164C233.875 97.5975 234.302 97.5785 234.66 97.4792C234.83 97.4288 234.923 97.372 234.932 97.3122C234.946 97.2233 234.786 97.101 234.499 96.9783C234.447 96.9569 234.436 96.9138 234.475 96.8829C234.511 96.8521 234.588 96.846 234.641 96.8682C234.897 96.976 235.196 97.1435 235.169 97.3221C235.152 97.4326 235.017 97.5252 234.766 97.6008C234.41 97.6993 234.014 97.7265 233.626 97.7445C233.881 97.8282 234.123 97.9328 234.259 98.095C234.367 98.2158 234.384 98.3445 234.306 98.4477C234.278 98.4852 234.239 98.5177 234.189 98.5461C234.117 98.5879 234.022 98.6198 233.908 98.6393C233.49 98.7089 233.029 98.6383 232.622 98.5767C232.549 98.5645 232.477 98.5548 232.409 98.5443C232.165 98.5086 231.935 98.4862 231.714 98.4754C232.022 98.6129 232.342 98.8127 232.423 99.01L232.414 99.0117Z" fill="#EFDCBD"/>
<path d="M232.837 101.14C232.802 101.109 232.819 101.068 232.874 101.047C232.928 101.026 233.002 101.035 233.036 101.067C233.204 101.219 233.445 101.347 233.775 101.457C234.413 101.663 234.673 101.639 234.777 101.584C234.978 101.468 234.633 101.195 234.521 101.114C234.361 100.99 234.165 100.902 233.938 100.853C233.888 100.844 233.849 100.836 233.822 100.831C233.765 100.817 233.735 100.78 233.754 100.746C233.775 100.711 233.838 100.693 233.898 100.702C233.943 100.71 233.984 100.717 234.027 100.727C234.28 100.769 234.678 100.802 234.864 100.745C234.913 100.73 234.941 100.711 234.953 100.684C234.967 100.653 234.957 100.627 234.925 100.602C234.754 100.473 234.072 100.42 233.762 100.421C233.696 100.422 233.644 100.392 233.645 100.354C233.645 100.316 233.697 100.286 233.763 100.285C233.775 100.285 234.81 100.291 235.111 100.517C235.19 100.576 235.213 100.644 235.181 100.716C235.153 100.78 235.08 100.832 234.972 100.865C234.848 100.902 234.688 100.913 234.524 100.91C234.589 100.947 234.65 100.986 234.707 101.031C235.094 101.314 235.178 101.545 234.939 101.682C234.577 101.875 233.885 101.651 233.657 101.576C233.295 101.453 233.026 101.312 232.838 101.141L232.837 101.14Z" fill="#EFDCBD"/>
<path d="M236.864 107.207C236.923 107.193 236.992 107.209 237.018 107.244C237.124 107.395 237.542 107.586 237.943 107.67C238.18 107.718 238.381 107.724 238.506 107.685C238.656 107.635 238.73 107.559 238.737 107.454C238.748 107.218 238.386 106.898 238.068 106.779C238.014 106.759 238 106.718 238.033 106.687C238.067 106.655 238.14 106.645 238.193 106.664C238.762 106.861 239.382 106.986 239.492 106.928C239.515 106.914 239.524 106.854 239.411 106.717C239.04 106.286 238.23 105.818 237.481 105.603C237.431 105.589 237.406 105.556 237.422 105.525C237.437 105.494 237.487 105.473 237.543 105.475C238.012 105.492 238.815 105.454 238.86 105.211C238.876 105.137 238.838 105.073 238.742 105.016C238.426 104.824 237.58 104.768 237.216 104.781C237.151 104.784 237.095 104.755 237.093 104.719C237.089 104.681 237.14 104.649 237.204 104.646C237.574 104.632 238.52 104.682 238.912 104.922C239.054 105.009 239.116 105.112 239.092 105.225C239.038 105.515 238.423 105.592 237.967 105.61C238.64 105.865 239.283 106.268 239.618 106.657C239.672 106.721 239.837 106.918 239.655 107.023C239.652 107.025 239.649 107.027 239.646 107.028C239.462 107.126 239.043 107.056 238.677 106.964C238.848 107.114 238.974 107.294 238.967 107.458C238.961 107.57 238.894 107.664 238.768 107.736C238.723 107.762 238.673 107.785 238.615 107.805C238.424 107.864 238.163 107.861 237.859 107.799C237.387 107.702 236.929 107.487 236.796 107.299C236.77 107.265 236.802 107.225 236.861 107.21L236.864 107.207Z" fill="#EFDCBD"/>
<path d="M230.945 105.274C230.95 105.236 231.003 105.207 231.07 105.208C231.133 105.21 231.184 105.241 231.179 105.279C231.15 105.594 231.434 105.952 231.954 106.005C232.141 106.016 232.298 105.984 232.395 105.918C232.499 105.847 232.526 105.74 232.468 105.625C232.454 105.595 232.476 105.564 232.521 105.547C232.569 105.531 232.628 105.535 232.665 105.556C233.068 105.789 233.506 105.953 233.636 105.923C233.702 105.904 233.72 105.883 233.725 105.868C233.773 105.758 233.497 105.549 233.38 105.46L233.349 105.435C233.309 105.405 233.318 105.364 233.373 105.34C233.424 105.318 233.498 105.324 233.537 105.353L233.568 105.378C233.729 105.501 234.029 105.729 233.954 105.901C233.942 105.929 233.916 105.964 233.859 105.997C233.827 106.015 233.784 106.034 233.729 106.049C233.461 106.111 233.022 105.926 232.731 105.78C232.72 105.866 232.666 105.943 232.575 106.006C232.423 106.108 232.195 106.156 231.918 106.139C231.24 106.07 230.911 105.641 230.945 105.274Z" fill="#EFDCBD"/>
<path d="M230.463 102.785C230.438 102.832 230.396 102.873 230.34 102.906C230.283 102.938 230.211 102.963 230.126 102.979C229.996 103.005 229.857 102.996 229.718 102.953C229.392 102.853 229.112 102.578 229.042 102.425C229.025 102.389 229.061 102.351 229.125 102.341C229.188 102.331 229.253 102.352 229.268 102.389C229.32 102.499 229.558 102.75 229.831 102.833C229.913 102.858 229.986 102.864 230.055 102.85C230.153 102.83 230.213 102.797 230.239 102.746C230.324 102.581 230.066 102.28 229.896 102.158C229.856 102.13 229.864 102.089 229.916 102.063C229.967 102.038 230.04 102.044 230.081 102.073C230.252 102.197 230.585 102.548 230.463 102.783L230.463 102.785Z" fill="#EFDCBD"/>
<path d="M228.868 102.163C228.868 102.163 228.858 102.169 228.854 102.171C228.732 102.241 228.559 102.265 228.373 102.234C227.878 102.141 227.663 101.492 227.666 101.261C227.668 101.224 227.72 101.194 227.784 101.193C227.849 101.193 227.901 101.223 227.902 101.261C227.899 101.508 228.133 102.046 228.443 102.105C228.548 102.122 228.636 102.11 228.695 102.071C228.788 102.013 228.81 101.906 228.748 101.81C228.726 101.775 228.756 101.736 228.817 101.722C228.877 101.709 228.945 101.726 228.967 101.761C229.062 101.904 229.022 102.066 228.868 102.163Z" fill="#EFDCBD"/>
<path d="M242.295 107.382C242.36 107.376 242.418 107.401 242.43 107.438C242.503 107.717 243.151 108.521 243.777 108.463C243.862 108.453 243.914 108.428 243.946 108.383C244.012 108.284 243.948 108.114 243.841 107.999C243.811 107.971 243.786 107.948 243.764 107.929C243.73 107.899 243.739 107.858 243.791 107.836C243.843 107.814 243.914 107.82 243.954 107.848C243.982 107.868 244.011 107.894 244.039 107.922C244.07 107.95 244.102 107.982 244.14 108.016C244.391 108.252 244.913 108.746 245.214 108.714C245.361 108.695 245.4 108.65 245.416 108.617C245.543 108.369 244.834 107.775 244.587 107.632C244.542 107.606 244.542 107.563 244.588 107.536C244.635 107.509 244.709 107.509 244.755 107.535C244.947 107.646 245.816 108.314 245.642 108.654C245.623 108.689 245.589 108.73 245.527 108.766C245.465 108.802 245.381 108.831 245.258 108.847C244.916 108.883 244.566 108.648 244.209 108.333C244.204 108.367 244.192 108.4 244.17 108.431C244.11 108.521 243.99 108.579 243.82 108.596C242.99 108.673 242.288 107.772 242.204 107.459C242.194 107.422 242.237 107.387 242.302 107.381L242.295 107.382Z" fill="#FFF3DB"/>
<path d="M235.042 109.706L235.027 109.679C235.006 109.643 235.04 109.605 235.102 109.592C235.163 109.58 235.23 109.599 235.25 109.634L235.266 109.661C235.453 109.993 235.847 110.685 236.479 110.768C236.568 110.777 236.681 110.781 236.725 110.748C236.807 110.683 236.721 110.473 236.523 110.259C236.492 110.225 236.515 110.184 236.572 110.166C236.629 110.148 236.7 110.16 236.731 110.193C236.829 110.298 237.133 110.657 236.914 110.827C236.904 110.834 236.892 110.843 236.88 110.849C236.783 110.905 236.632 110.923 236.427 110.9C235.664 110.801 235.243 110.061 235.042 109.704L235.042 109.706Z" fill="#EFDCBD"/>
<path d="M237.234 109.942C237.29 109.923 237.362 109.932 237.395 109.965C237.92 110.473 238.457 110.805 238.703 110.77C238.824 110.753 238.912 110.62 238.944 110.403C238.951 110.367 239.007 110.337 239.073 110.341C239.138 110.343 239.186 110.376 239.179 110.413C239.146 110.625 239.067 110.766 238.935 110.842C238.883 110.873 238.824 110.892 238.755 110.902C238.228 110.975 237.486 110.32 237.191 110.034C237.159 110.002 237.176 109.961 237.233 109.941L237.234 109.942Z" fill="#EFDCBD"/>
<path d="M237.871 99.5488C238.855 99.8914 240.401 99.464 241.323 98.5939C242.244 97.7238 242.191 96.7393 241.207 96.3967C240.223 96.0541 238.677 96.4815 237.756 97.3516C236.834 98.2217 236.887 99.2062 237.871 99.5488Z" fill="#593A42"/>
<path d="M239.311 96.6468C239.794 96.4765 240.46 96.45 240.939 96.6293C241.202 96.7279 240.899 96.9507 240.639 96.8537C240.355 96.7485 239.883 96.7718 239.6 96.8724C239.333 96.9672 239.039 96.7441 239.309 96.6477L239.311 96.6468Z" fill="#936170"/>
<path d="M241.286 96.7833C241.453 96.8258 241.574 96.9009 241.632 97.0012C241.731 97.1719 241.275 97.2781 241.177 97.1058C241.158 97.0735 241.147 97.0569 241.094 97.043C240.807 96.9693 241.001 96.7088 241.286 96.7833Z" fill="#936170"/>
<path d="M235.521 98.2255C235.792 98.3814 236.158 98.4208 236.342 98.3147C236.525 98.2086 236.456 97.9963 236.187 97.8412C235.919 97.6861 235.549 97.6451 235.366 97.7512C235.182 97.8573 235.251 98.0696 235.521 98.2255Z" fill="#593A42"/>
<path d="M233.391 99.4553C233.661 99.6113 234.028 99.6506 234.211 99.5445C234.395 99.4384 234.326 99.2261 234.057 99.071C233.788 98.9159 233.419 98.8749 233.235 98.981C233.052 99.0871 233.121 99.2994 233.391 99.4553Z" fill="#593A42"/>
</g>
</g>
<g clip-path="url(#clip2_111_276)">
<path d="M147.796 -56.3697C144.646 -56.3697 142.112 -54.9065 137.043 -51.9799L31.6393 8.87486C31.5375 8.93364 31.4367 8.99182 31.337 9.04942L30.0838 5.28992L24.8069 3.58268L24.0309 4.82431V14.9125L24.0442 14.9038C24.0387 14.9632 24.0359 15.0229 24.0359 15.083C24.0359 16.9013 26.5704 18.3645 31.6393 21.2911L103.828 62.9691C108.897 65.8956 111.431 67.3589 114.58 67.3589C117.73 67.3589 120.264 65.8956 125.333 62.9691L230.737 2.11425C235.741 -0.774651 238.275 -2.23767 238.339 -4.02388L238.366 -4.02225V-14.2656L234.175 -13.024L229.25 -11.1604L158.548 -51.9799C153.48 -54.9065 150.945 -56.3697 147.796 -56.3697Z" fill="#E44449"/>
<rect width="108.188" height="146.542" rx="6.20811" transform="matrix(0.866025 0.5 -0.866026 0.5 147.796 -68.5149)" fill="#F15156"/>
<g clip-path="url(#clip3_111_276)">
<path d="M95.9123 15.7909C92.1953 13.9323 88.0897 10.7866 88.6001 10.4078C89.0842 10.0507 94.5574 10.6891 96.9642 10.9908C96.1117 11.7619 95.8898 12.7216 95.7593 13.6104C95.6664 14.3472 95.7044 15.0793 95.9109 15.7901L95.9123 15.7909Z" fill="#FA9700"/>
<path d="M95.7607 13.6111C95.8912 12.7223 96.1117 11.7617 96.9656 10.9915C97.6535 11.0778 98.0929 11.136 98.0929 11.136L98.2095 16.7728C97.496 16.533 96.7132 16.1913 95.9137 15.7915C95.7087 15.08 95.6692 14.3487 95.7621 13.6119L95.7607 13.6111Z" fill="#F27006"/>
<path d="M122.948 21.4456C121.695 23.4809 118.363 24.6687 115.034 25.5526L108.319 21.1794L117.101 15.3515C118.487 15.5864 119.883 15.8429 121.281 16.1167C123.019 17.7169 124.067 19.5852 122.946 21.4465L122.948 21.4456Z" fill="#F27006"/>
<path d="M122.948 21.4456C124.067 19.5851 123.019 17.7168 121.282 16.1158C137.832 19.3548 154.637 24.9714 154.637 24.9714L133.172 37.3644L115.036 25.5533C118.364 24.6695 121.695 23.4826 122.949 21.4464L122.948 21.4456Z" fill="#FA9700"/>
<path d="M88.564 10.5473C91.0751 10.5182 93.353 11.6897 94.8631 12.849C96.1434 13.8588 96.6014 14.9771 96.6232 16.1344C93.0291 14.4821 88.7453 11.3254 88.5626 10.5482L88.564 10.5473Z" fill="#FEB8AC"/>
<path d="M120.589 22.6756C125.932 19.5909 117.754 13.7145 113.739 10.9355C109.723 8.15724 102.732 7.85231 98.8232 10.109C94.9145 12.3657 95.4427 16.402 100.255 18.7207C105.067 21.0394 115.246 25.7602 120.589 22.6756Z" fill="#FFF3DB"/>
<path d="M99.7444 9.64977C103.755 7.91326 110.02 8.36364 113.736 10.9354C115.742 12.322 118.784 14.4828 120.662 16.6818C115.932 15.047 110.949 15.7476 108.504 14.6623C106.112 13.6 101.648 10.8442 99.743 9.64894L99.7444 9.64977Z" fill="#FA9700"/>
<path d="M98.0265 10.6417C100.095 11.7425 104.87 14.3187 106.71 15.7001C108.59 17.1113 107.376 19.9883 110.208 22.7194C106.399 21.6349 102.658 19.8776 100.255 18.7208C95.7989 16.5743 95.0202 12.9582 98.0279 10.6425L98.0265 10.6417Z" fill="#FA9700"/>
<path d="M106.045 17.724C105.326 18.1392 103.988 18.0154 102.996 17.4429C102.869 17.3694 102.871 17.2499 102.999 17.1755C103.128 17.1012 103.335 17.1004 103.462 17.1738C104.171 17.583 105.143 17.7132 105.586 17.4575C106.029 17.2018 105.802 16.6414 105.093 16.2322C104.966 16.1588 104.968 16.0392 105.096 15.9649C105.225 15.8905 105.432 15.8898 105.559 15.9632C106.551 16.5358 106.764 17.3087 106.046 17.7232L106.045 17.724Z" fill="#593A42"/>
<path d="M112.58 13.9508C111.862 14.3652 110.523 14.2422 109.532 13.6696C109.405 13.5962 109.406 13.4767 109.535 13.4023C109.663 13.3279 109.87 13.3272 109.998 13.4006C110.706 13.8098 111.679 13.9399 112.121 13.6843C112.564 13.4286 112.337 12.8682 111.629 12.459C111.501 12.3856 111.503 12.266 111.632 12.1917C111.76 12.1173 111.967 12.1165 112.095 12.19C113.086 12.7625 113.299 13.5355 112.581 13.9499L112.58 13.9508Z" fill="#593A42"/>
<path d="M119.903 19.3904C120.989 20.0174 120.748 21.1731 119.367 21.9702C117.987 22.7672 115.983 22.9074 114.897 22.2804C113.811 21.6534 114.051 20.4985 115.435 19.6997C116.818 18.901 118.817 18.7634 119.903 19.3904Z" fill="#593A42"/>
<path d="M114.915 20.3923C114.52 20.7756 114.492 21.239 114.802 21.6389C115.019 21.9195 115.741 21.6778 115.525 21.3996C115.333 21.1529 115.396 20.8571 115.635 20.6254C115.908 20.3588 115.191 20.1256 114.917 20.3914L114.915 20.3923Z" fill="#936170"/>
<path d="M115.325 21.7532C115.141 21.8145 115.039 21.9726 115.164 22.0801C115.227 22.133 115.282 22.1868 115.345 22.2397C115.472 22.3463 115.699 22.397 115.909 22.3281C116.091 22.2677 116.196 22.1079 116.068 22.0021C116.005 21.9492 115.949 21.8946 115.887 21.8425C115.76 21.7359 115.534 21.6852 115.323 21.7541L115.325 21.7532Z" fill="#936170"/>
<path d="M127.959 30.6818C125.796 28.8317 117.494 21.0355 127.366 21.9276C131.728 22.3102 135.85 23.6875 139.454 24.9678C142.548 26.0541 145.525 27.2919 148.423 28.559L135.306 36.132C132.729 34.3714 130.215 32.5823 127.959 30.6818Z" fill="#FFF3DB"/>
<path d="M131.628 -4.25252C128.078 -7.32634 125.25 -10.754 131.917 -13.4018C138.583 -16.0496 143.681 -12.5398 143.515 -12.4437C143.349 -12.3476 155.639 -12.106 154.358 -9.2163C153.077 -6.3266 145.662 -5.48594 145.662 -5.48594C145.662 -5.48594 143.266 -4.8371 141.225 -4.73418C141.225 -4.73418 148.482 1.73834 165.86 2.92859C175.485 5.99105 184.103 7.95548 184.103 7.95548L164.556 19.2414C151.128 12.0658 135.288 -1.08362 131.628 -4.25418L131.628 -4.25252Z" fill="#FFF3DB"/>
<path d="M172.848 14.4573L164.558 19.243C161.661 17.6936 158.648 15.8657 155.671 13.9197C156.859 13.4156 158.288 12.9828 159.827 12.5861C164.969 11.2988 170.089 11.8903 172.85 14.4573L172.848 14.4573Z" fill="#593A42"/>
<path d="M168.674 16.8669C168.674 16.8669 154.045 7.303 142.069 5.63559C130.093 3.96984 127.451 8.63868 128.453 11.6272C128.453 11.6272 127.385 14.5377 124.406 16.1733C124.406 16.1733 131.045 18.4571 134.503 13.7429C134.503 13.7429 139.861 11.0733 146.717 13.9117C153.571 16.751 154.071 25.298 154.071 25.298L168.674 16.8669Z" fill="#FF740C"/>
<path d="M128.397 11.7685C133.025 11.2253 134.503 13.743 134.503 13.743C131.046 18.458 124.406 16.1733 124.406 16.1733C126.997 14.7517 128.142 12.3664 128.396 11.7677L128.397 11.7685Z" fill="#FFF3DB"/>
<path d="M151.692 13.1049C159.313 14.5839 163.757 16.7919 166.114 18.3449L154.07 25.2988C154.07 25.2988 153.571 16.751 146.715 13.9126C139.861 11.0733 134.502 13.7437 134.502 13.7437C134.502 13.7437 138.828 10.6088 151.691 13.1057L151.692 13.1049Z" fill="#ED4714"/>
<path d="M123.741 16.8722C124.963 16.8944 125.984 16.5145 126.021 16.0229C126.058 15.5329 125.096 15.118 123.874 15.0959C122.652 15.0738 121.633 15.4544 121.596 15.9444C121.559 16.4344 122.521 16.8493 123.743 16.8714L123.741 16.8722Z" fill="#593A42"/>
<path d="M131.104 12.7433C132.36 13.0202 133.549 13.7655 132.58 14.5362C132.419 14.6638 132.048 14.5448 132.211 14.4163C133.001 13.7866 132.012 13.2074 130.994 12.982C130.741 12.9264 130.85 12.6869 131.104 12.7433Z" fill="#593A42"/>
<path d="M122.624 15.3412C122.832 15.3064 123.035 15.2832 123.254 15.2841C123.806 15.2854 123.759 15.7779 123.21 15.7766C123.067 15.7763 122.933 15.8008 122.798 15.8229C122.268 15.9112 122.096 15.4295 122.625 15.342L122.624 15.3412Z" fill="#936170"/>
<path d="M124.069 15.2397C124.237 15.2283 124.376 15.2319 124.541 15.2504C124.77 15.277 124.883 15.4393 124.819 15.5574C124.742 15.6955 124.51 15.747 124.283 15.7213C124.269 15.7213 124.256 15.7205 124.242 15.7206C124.011 15.7364 123.788 15.6741 123.737 15.5332C123.696 15.4121 123.838 15.2555 124.069 15.2397Z" fill="#936170"/>
<path d="M111.604 29.0494C111.604 29.0494 110.335 28.1699 109.532 27.1915C110.266 27.2095 111.006 27.1902 111.733 27.122L112.201 28.442L111.602 29.0503L111.604 29.0494Z" fill="#EFDCBD"/>
<path d="M109.533 27.1907C109.292 26.8977 109.094 26.5962 108.985 26.306C108.946 26.2016 108.925 26.0946 108.918 25.985C108.665 25.8705 108.43 25.7153 108.379 25.5469C108.336 25.4417 108.386 25.3236 108.603 25.3236C108.771 25.3238 108.893 25.4073 108.988 25.4791C108.99 25.475 108.993 25.4716 108.991 25.4675C108.755 25.2176 108.381 24.9649 108.364 24.6744C108.367 24.5491 108.482 24.4648 108.703 24.5088C108.971 24.5601 109.146 24.7579 109.282 24.8853C109.268 24.7434 109.158 24.0082 109.328 23.849C109.483 23.7081 109.633 23.818 109.707 23.9306C109.786 24.0482 109.802 24.1794 109.799 24.3097C110.556 23.617 111.642 23.1432 112.443 23.3461C114.089 23.7619 111.347 26.0459 111.347 26.0459L111.73 27.1204C111.003 27.1887 110.262 27.2072 109.529 27.1899L109.533 27.1907Z" fill="#FFF3DB"/>
<path d="M106.314 29.9239C106.314 29.9239 105.434 28.4252 106.119 28.3239C106.801 28.2235 107.259 29.3783 107.259 29.3783C107.259 29.3783 107.808 27.5647 108.607 27.7287C109.408 27.8935 108.754 29.1022 108.754 29.1022C108.754 29.1022 112.308 27.7351 113.292 27.4609C114.276 27.1867 116.195 27.0568 115.459 28.167L117.063 29.5393C117.063 29.5393 120.03 27.2387 122.197 28.0436C124.362 28.8477 124.735 29.9049 124.392 30.1029C124.049 30.3009 123.282 30.1559 123.282 30.1559C123.282 30.1559 124.999 30.9367 124.515 31.4142C124.194 31.7317 123.012 31.3383 123.012 31.3383C123.012 31.3383 124.515 32.5084 123.763 32.9113C123.362 33.1261 122.14 32.5793 122.14 32.5793C122.14 32.5793 122.472 33.9995 121.575 34.1746C120.678 34.3505 118.292 34.0637 118.292 34.0637C118.292 34.0637 122.927 35.1543 124.197 36.0845C125.465 37.0155 124.907 37.387 123.883 37.3908C123.883 37.3908 126.683 38.7097 127.816 40.4532L117.301 46.524C117.301 46.524 107.385 33.0707 106.208 31.5972C106.208 31.5972 103.254 30.4 103.797 29.8575C104.33 29.3234 106.311 29.9222 106.311 29.9222L106.314 29.9239Z" fill="#FFF3DB"/>
<path d="M124.558 40.5606C123.519 39.8205 120.152 38.2512 122.858 37.5672C121.774 37.2225 119.204 36.4871 121.304 35.8751C120.3 35.716 116.519 35.1711 116.608 34.3804C116.666 33.8173 118.364 33.9738 119.778 34.1986C118.994 34.15 118.291 34.0654 118.291 34.0654C118.291 34.0654 122.927 35.156 124.197 36.0862C125.465 37.0172 124.907 37.3887 123.883 37.3924C123.883 37.3924 126.683 38.7114 127.816 40.4549L122.595 43.4694C122.197 43.1363 121.918 42.7662 121.839 42.3596C121.647 41.4537 122.908 40.4952 124.558 40.5589L124.558 40.5606Z" fill="#EFDCBD"/>
<path d="M112.162 23.729C112.633 24.2296 110.951 25.9119 110.951 25.9119L111.596 28.5904C111.596 28.5904 109.656 26.2437 109.548 25.9627C109.44 25.6816 111.57 23.1027 112.159 23.729L112.162 23.729Z" fill="#FEB8AC"/>
<path d="M100.637 30.9159C100.766 30.8515 100.954 30.8683 101.108 30.8851C101.104 30.8827 101.102 30.8785 101.098 30.8744C100.633 30.7781 100.06 30.7329 99.7156 30.5224C99.5757 30.4283 99.5654 30.3221 99.7831 30.2706C100.045 30.2066 100.406 30.2874 100.654 30.3305C100.481 30.2307 99.5604 29.7243 99.5077 29.5419C99.465 29.3785 99.7063 29.4025 99.8897 29.4583C100.085 29.5157 100.246 29.6072 100.393 29.7055C100.178 28.9026 100.465 28.1361 101.305 27.9828C103.033 27.6668 103.552 30.408 103.552 30.408L106.931 31.866L107.17 32.5467C107.17 32.5467 103.844 32.2558 102.046 31.5019C101.897 31.4393 101.76 31.3668 101.63 31.2884C101.306 31.2987 100.951 31.2726 100.719 31.1672C100.568 31.1046 100.471 30.9987 100.634 30.9159L100.637 30.9159Z" fill="#FFF3DB"/>
<path d="M101.525 28.3755C102.453 28.5689 103.093 30.4603 103.093 30.4603L106.662 32.0264C106.662 32.0264 102.486 31.1981 102.084 31.0294C101.682 30.8607 100.359 28.1316 101.525 28.3739L101.525 28.3755Z" fill="#FEB8AC"/>
<path d="M112.73 30.4965C112.779 30.615 112.743 30.7231 112.627 30.8165C112.298 31.0825 111.488 31.0979 110.216 30.8568C110.155 30.8446 110.122 30.8074 110.144 30.7716C110.163 30.7358 110.231 30.7165 110.293 30.7287C111.742 31.0024 112.26 30.8834 112.438 30.7391C112.515 30.6783 112.536 30.6101 112.502 30.5305C112.407 30.3017 111.889 30.0463 111.551 29.9495C111.504 29.9356 111.477 29.905 111.49 29.8742C111.502 29.8443 111.548 29.8225 111.603 29.8206C111.974 29.8127 112.357 29.8387 112.778 29.8994C112.848 29.9099 112.922 29.9204 112.996 29.9318C113.374 29.9894 113.802 30.0559 114.154 29.9957C114.277 29.9744 114.361 29.936 114.402 29.881C114.45 29.8152 114.436 29.729 114.36 29.6429C114.206 29.4575 113.868 29.3591 113.54 29.2631L113.468 29.2418C113.422 29.2287 113.397 29.1989 113.407 29.1682C113.418 29.1391 113.459 29.1165 113.513 29.1138C113.601 29.1093 113.688 29.1049 113.777 29.1012C114.19 29.0823 114.618 29.0633 114.975 28.964C115.146 28.9136 115.238 28.8568 115.248 28.797C115.261 28.7081 115.102 28.5858 114.814 28.4631C114.763 28.4417 114.751 28.3986 114.791 28.3678C114.827 28.3369 114.903 28.3308 114.956 28.353C115.212 28.4609 115.511 28.6283 115.485 28.8069C115.468 28.9174 115.333 29.01 115.082 29.0857C114.726 29.1841 114.33 29.2113 113.941 29.2293C114.196 29.3131 114.438 29.4176 114.575 29.5798C114.683 29.7007 114.7 29.8293 114.621 29.9325C114.593 29.97 114.554 30.0025 114.505 30.0309C114.433 30.0727 114.337 30.1046 114.224 30.1241C113.806 30.1937 113.345 30.1231 112.937 30.0615C112.864 30.0493 112.792 30.0396 112.725 30.0291C112.481 29.9935 112.251 29.971 112.03 29.9602C112.337 30.0978 112.657 30.2975 112.738 30.4948L112.73 30.4965Z" fill="#EFDCBD"/>
<path d="M113.152 32.6254C113.118 32.594 113.134 32.5533 113.189 32.5315C113.244 32.5114 113.317 32.5202 113.351 32.5516C113.519 32.7038 113.761 32.8316 114.09 32.9416C114.728 33.1477 114.989 33.1243 115.093 33.0692C115.294 32.953 114.949 32.6803 114.836 32.5985C114.677 32.4746 114.481 32.3865 114.254 32.3375C114.204 32.3285 114.165 32.3212 114.138 32.3155C114.08 32.3024 114.05 32.2652 114.07 32.231C114.09 32.1961 114.153 32.1776 114.214 32.1874C114.258 32.1947 114.3 32.202 114.343 32.2118C114.596 32.254 114.994 32.2866 115.18 32.2303C115.229 32.2152 115.256 32.196 115.268 32.1694C115.283 32.1378 115.273 32.1121 115.24 32.0865C115.069 31.9576 114.388 31.9053 114.077 31.9064C114.011 31.9066 113.96 31.8769 113.96 31.8388C113.961 31.8006 114.013 31.7705 114.079 31.7702C114.09 31.7702 115.126 31.7764 115.427 32.0019C115.505 32.0606 115.529 32.1294 115.496 32.2009C115.468 32.265 115.396 32.3167 115.288 32.3495C115.164 32.3865 115.004 32.3978 114.84 32.3951C114.904 32.4322 114.966 32.471 115.023 32.5157C115.409 32.799 115.493 33.0295 115.254 33.1674C114.893 33.3596 114.201 33.1355 113.973 33.0608C113.61 32.9384 113.341 32.7966 113.153 32.6263L113.152 32.6254Z" fill="#EFDCBD"/>
<path d="M117.18 38.692C117.239 38.6776 117.308 38.694 117.333 38.7288C117.439 38.8803 117.857 39.0714 118.259 39.1546C118.496 39.2027 118.697 39.2086 118.821 39.17C118.971 39.1196 119.045 39.0438 119.052 38.9392C119.063 38.7034 118.702 38.3826 118.384 38.2642C118.329 38.2444 118.315 38.203 118.349 38.1721C118.382 38.1396 118.456 38.1302 118.509 38.1491C119.077 38.3455 119.697 38.4711 119.807 38.4126C119.83 38.3992 119.839 38.3394 119.726 38.202C119.355 37.7708 118.545 37.303 117.797 37.0882C117.747 37.0743 117.721 37.0412 117.737 37.0104C117.752 36.9788 117.803 36.9578 117.859 36.9601C118.327 36.9767 119.13 36.9389 119.176 36.6963C119.191 36.6215 119.153 36.5577 119.057 36.5008C118.742 36.3085 117.895 36.2526 117.531 36.2664C117.466 36.2692 117.411 36.2403 117.408 36.2038C117.404 36.1664 117.455 36.1339 117.52 36.1311C117.889 36.1173 118.835 36.167 119.228 36.4072C119.369 36.4938 119.431 36.5966 119.407 36.7096C119.354 36.9995 118.739 37.0773 118.283 37.0947C118.956 37.3497 119.599 37.7525 119.934 38.1414C119.988 38.206 120.152 38.403 119.97 38.5083C119.967 38.5099 119.964 38.5116 119.961 38.5133C119.778 38.6111 119.358 38.5412 118.993 38.4487C119.164 38.5992 119.29 38.7789 119.282 38.9433C119.277 39.0554 119.209 39.1487 119.084 39.2213C119.039 39.2472 118.988 39.2698 118.93 39.29C118.74 39.3488 118.478 39.3464 118.174 39.2844C117.702 39.1874 117.244 38.9715 117.111 38.7844C117.086 38.7496 117.118 38.7096 117.177 38.6953L117.18 38.692Z" fill="#EFDCBD"/>
<path d="M111.261 36.7585C111.265 36.7211 111.319 36.6918 111.385 36.6933C111.448 36.6947 111.5 36.7261 111.495 36.7634C111.466 37.079 111.749 37.4366 112.269 37.4895C112.456 37.5005 112.613 37.4692 112.71 37.4033C112.815 37.3315 112.842 37.2251 112.784 37.1099C112.77 37.0801 112.792 37.0493 112.836 37.0317C112.884 37.0157 112.943 37.0197 112.98 37.0411C113.383 37.2738 113.821 37.4382 113.951 37.4079C114.017 37.3894 114.035 37.3677 114.041 37.3527C114.088 37.243 113.813 37.0339 113.696 36.9447L113.665 36.9199C113.625 36.8902 113.634 36.8486 113.689 36.8252C113.739 36.8026 113.814 36.8089 113.852 36.8379L113.884 36.8627C114.045 36.9858 114.344 37.2138 114.269 37.3859C114.257 37.4142 114.231 37.4492 114.175 37.4818C114.143 37.5002 114.099 37.5186 114.045 37.5337C113.776 37.5961 113.337 37.4109 113.047 37.265C113.036 37.3506 112.982 37.428 112.89 37.4906C112.738 37.5933 112.511 37.6406 112.233 37.6242C111.555 37.5552 111.226 37.1264 111.261 36.7585Z" fill="#EFDCBD"/>
<path d="M110.779 34.2695C110.754 34.3169 110.712 34.3578 110.655 34.3903C110.599 34.4229 110.526 34.4481 110.441 34.4642C110.312 34.4896 110.172 34.4809 110.033 34.4374C109.708 34.3382 109.428 34.0627 109.358 33.9102C109.341 33.8738 109.377 33.8363 109.44 33.8261C109.504 33.8159 109.568 33.8364 109.584 33.8737C109.636 33.9839 109.873 34.2346 110.147 34.3175C110.229 34.3429 110.302 34.3485 110.371 34.3349C110.469 34.3146 110.528 34.282 110.555 34.2305C110.64 34.0658 110.382 33.7645 110.212 33.6431C110.172 33.615 110.179 33.5743 110.231 33.5476C110.282 33.5233 110.355 33.5288 110.397 33.5577C110.568 33.6817 110.901 34.0325 110.779 34.2679L110.779 34.2695Z" fill="#EFDCBD"/>
<path d="M109.184 33.6477C109.184 33.6477 109.173 33.6536 109.169 33.6561C109.048 33.7263 108.875 33.7501 108.688 33.7193C108.193 33.6256 107.979 32.9771 107.981 32.7463C107.983 32.709 108.035 32.6789 108.1 32.6778C108.165 32.6784 108.216 32.7081 108.217 32.7455C108.214 32.9929 108.449 33.5308 108.759 33.5895C108.863 33.6065 108.951 33.5954 109.011 33.5562C109.103 33.4977 109.126 33.3906 109.064 33.2945C109.041 33.2597 109.072 33.2206 109.132 33.2071C109.193 33.1935 109.26 33.2107 109.283 33.2455C109.378 33.3888 109.337 33.5508 109.184 33.6477Z" fill="#EFDCBD"/>
<path d="M122.611 38.8665C122.675 38.8604 122.734 38.886 122.745 38.9224C122.818 39.202 123.467 40.0057 124.093 39.9478C124.178 39.9384 124.23 39.9133 124.262 39.8684C124.328 39.7693 124.263 39.5985 124.157 39.4835C124.127 39.4562 124.101 39.4331 124.08 39.4141C124.046 39.3843 124.055 39.3427 124.107 39.321C124.159 39.2992 124.229 39.3047 124.269 39.3328C124.298 39.3527 124.326 39.3791 124.355 39.4072C124.386 39.4354 124.417 39.4668 124.456 39.5007C124.706 39.7372 125.229 40.231 125.529 40.1991C125.676 40.1803 125.716 40.1345 125.732 40.1021C125.858 39.8542 125.15 39.2599 124.903 39.1172C124.857 39.0908 124.858 39.0476 124.904 39.0208C124.95 38.9941 125.025 38.9938 125.071 39.0202C125.262 39.1308 126.132 39.7984 125.957 40.1386C125.938 40.1744 125.905 40.2152 125.842 40.2511C125.78 40.2871 125.696 40.3156 125.574 40.3318C125.231 40.3679 124.882 40.1326 124.524 39.8176C124.519 39.8516 124.508 39.8849 124.486 39.9157C124.426 40.0064 124.306 40.0641 124.136 40.0813C123.305 40.1583 122.603 39.2567 122.519 38.944C122.509 38.9067 122.553 38.8717 122.618 38.8656L122.611 38.8665Z" fill="#FFF3DB"/>
<path d="M115.358 41.191L115.342 41.1637C115.321 41.128 115.356 41.0897 115.418 41.077C115.479 41.0652 115.546 41.084 115.566 41.1188L115.581 41.1462C115.769 41.4784 116.162 42.1702 116.794 42.2526C116.883 42.2622 116.997 42.266 117.04 42.2326C117.123 42.1684 117.036 41.9578 116.839 41.7435C116.807 41.7104 116.831 41.6688 116.887 41.6512C116.945 41.6327 117.015 41.6449 117.046 41.678C117.144 41.7831 117.448 42.1423 117.229 42.3116C117.219 42.3191 117.208 42.3275 117.196 42.3342C117.099 42.3901 116.948 42.4081 116.742 42.3848C115.98 42.2855 115.558 41.5456 115.358 41.1893L115.358 41.191Z" fill="#EFDCBD"/>
<path d="M117.55 41.427C117.606 41.4077 117.678 41.4174 117.71 41.4497C118.235 41.9584 118.772 42.2901 119.019 42.2552C119.14 42.2382 119.227 42.105 119.26 41.8882C119.266 41.8517 119.323 41.8224 119.389 41.8255C119.453 41.8277 119.502 41.8608 119.494 41.8981C119.462 42.11 119.383 42.2514 119.251 42.3274C119.199 42.3575 119.14 42.3768 119.07 42.387C118.543 42.4604 117.801 41.8047 117.507 41.5193C117.474 41.4871 117.492 41.4455 117.548 41.4262L117.55 41.427Z" fill="#EFDCBD"/>
<path d="M118.187 31.0338C119.171 31.3764 120.717 30.949 121.638 30.0789C122.559 29.2088 122.507 28.2243 121.523 27.8817C120.539 27.5391 118.992 27.9665 118.071 28.8366C117.15 29.7067 117.202 30.6912 118.187 31.0338Z" fill="#593A42"/>
<path d="M119.626 28.132C120.11 27.9617 120.776 27.9352 121.254 28.1144C121.518 28.2131 121.215 28.4358 120.954 28.3388C120.671 28.2336 120.199 28.2569 119.916 28.3576C119.649 28.4523 119.355 28.2293 119.625 28.1328L119.626 28.132Z" fill="#936170"/>
<path d="M121.602 28.2683C121.768 28.3109 121.89 28.386 121.948 28.4862C122.046 28.6569 121.591 28.7632 121.492 28.5909C121.474 28.5585 121.462 28.542 121.409 28.5281C121.122 28.4544 121.317 28.1938 121.602 28.2683Z" fill="#936170"/>
<path d="M115.837 29.7107C116.107 29.8666 116.473 29.906 116.657 29.7999C116.841 29.6937 116.771 29.4815 116.503 29.3264C116.234 29.1713 115.865 29.1303 115.681 29.2364C115.497 29.3425 115.567 29.5548 115.837 29.7107Z" fill="#593A42"/>
<path d="M113.707 30.9406C113.977 31.0965 114.343 31.1358 114.527 31.0297C114.711 30.9236 114.641 30.7113 114.373 30.5562C114.104 30.4011 113.735 30.3601 113.551 30.4663C113.367 30.5724 113.437 30.7846 113.707 30.9406Z" fill="#593A42"/>
</g>
</g>
<defs>
<clipPath id="clip0_111_276">
<rect width="194" height="136" fill="white" transform="translate(141)"/>
</clipPath>
<clipPath id="clip1_111_276">
<rect width="118.748" height="60.3017" rx="9.31217" transform="matrix(0.866025 -0.5 0.866025 0.5 184.766 84.8897)" fill="white"/>
</clipPath>
<clipPath id="clip2_111_276">
<rect width="220.578" height="62.7332" fill="white" transform="translate(21 13.009)"/>
</clipPath>
<clipPath id="clip3_111_276">
<rect width="118.748" height="60.3017" rx="9.31217" transform="matrix(0.866025 -0.5 0.866025 0.5 65.0811 16.3747)" fill="white"/>
</clipPath>
</defs>
</svg>
