<svg width="1246" height="465" viewBox="0 0 1246 465" fill="none" xmlns="http://www.w3.org/2000/svg">
<rect y="38" width="1231" height="339" rx="20" fill="#0D3B66"/>
<g clip-path="url(#clip0_110_275)">
<path d="M964.597 37.0117C953.703 37.0117 944.936 42.0733 927.403 52.1964L562.802 262.699C562.45 262.902 562.101 263.103 561.756 263.303L557.421 250.298L539.168 244.393L536.484 248.687V283.583L536.53 283.553C536.511 283.759 536.501 283.965 536.501 284.173C536.501 290.463 545.268 295.524 562.802 305.648L812.508 449.815C830.042 459.939 838.809 465 849.703 465C860.597 465 869.364 459.939 886.898 449.815L1251.5 239.313C1268.81 229.32 1277.57 224.259 1277.79 218.081L1277.89 218.086V182.654L1263.39 186.949L1246.36 193.395L1001.79 52.1964C984.258 42.0733 975.492 37.0117 964.597 37.0117Z" fill="#E44449"/>
<rect width="374.233" height="506.902" rx="21.4744" transform="matrix(0.866025 0.5 -0.866026 0.5 964.597 -5)" fill="#F15156"/>
<g clip-path="url(#clip1_110_275)">
<path d="M785.127 286.621C772.27 280.192 758.068 269.311 759.834 268.001C761.508 266.766 780.441 268.974 788.766 270.018C785.817 272.685 785.049 276.004 784.598 279.079C784.277 281.627 784.408 284.16 785.122 286.618L785.127 286.621Z" fill="#FA9700"/>
<path d="M784.603 279.082C785.054 276.007 785.817 272.685 788.771 270.02C791.15 270.319 792.67 270.52 792.67 270.52L793.074 290.018C790.605 289.189 787.898 288.007 785.132 286.624C784.423 284.163 784.286 281.633 784.608 279.084L784.603 279.082Z" fill="#F27006"/>
<path d="M829.233 261.157C831.628 262.753 833.675 264.317 835.112 265.742L801.34 265.509C801.34 265.509 800.992 264.631 800.474 263.258C805.094 261.555 810.839 261.115 816.169 260.851C820.583 260.666 824.97 260.742 829.228 261.154L829.233 261.157Z" fill="#F27006"/>
<path d="M796.981 246.553C799.251 245.534 818.093 253.731 829.233 261.157C824.975 260.744 820.588 260.668 816.174 260.854C810.844 261.117 805.089 261.558 800.479 263.26C798.677 258.451 794.842 247.52 796.986 246.556L796.981 246.553Z" fill="#FA9700"/>
<path d="M878.646 306.182C874.311 313.222 862.786 317.331 851.272 320.388L828.044 305.261L858.423 285.102C863.214 285.914 868.044 286.801 872.879 287.749C878.891 293.284 882.516 299.746 878.641 306.185L878.646 306.182Z" fill="#F27006"/>
<path d="M878.646 306.182C882.516 299.746 878.891 293.283 872.884 287.746C930.133 298.949 988.262 318.378 988.262 318.378L914.011 361.246L851.277 320.391C862.791 317.333 874.311 313.228 878.651 306.185L878.646 306.182Z" fill="#FA9700"/>
<path d="M759.709 268.484C768.395 268.383 776.274 272.435 781.498 276.445C785.927 279.939 787.511 283.807 787.586 287.81C775.154 282.094 760.336 271.175 759.704 268.487L759.709 268.484Z" fill="#FEB8AC"/>
<path d="M797.818 246.481C797.644 251.496 804.657 256.048 811.608 259.061C817.658 261.618 824.358 262.533 831.292 262.576C821.392 255.399 802.48 246.843 797.823 246.479L797.818 246.481Z" fill="#FEB8AC"/>
<path d="M870.486 310.436C888.968 299.766 860.678 279.439 846.791 269.826C832.899 260.216 808.717 259.161 795.196 266.967C781.676 274.773 783.502 288.735 800.148 296.756C816.793 304.776 852.005 321.106 870.486 310.436Z" fill="#FFF3DB"/>
<path d="M798.382 265.379C812.256 259.372 833.926 260.93 846.781 269.826C853.718 274.622 864.241 282.097 870.738 289.703C854.375 284.048 837.138 286.472 828.684 282.717C820.407 279.043 804.967 269.51 798.377 265.376L798.382 265.379Z" fill="#FA9700"/>
<path d="M792.44 268.809C799.596 272.617 816.112 281.529 822.476 286.307C828.979 291.188 824.781 301.14 834.576 310.587C821.401 306.836 808.46 300.757 800.148 296.756C784.734 289.331 782.041 276.822 792.445 268.812L792.44 268.809Z" fill="#FA9700"/>
<path d="M820.176 293.308C817.689 294.745 813.062 294.316 809.632 292.336C809.192 292.082 809.197 291.668 809.642 291.411C810.088 291.154 810.804 291.151 811.244 291.405C813.695 292.821 817.058 293.271 818.59 292.386C820.122 291.502 819.337 289.564 816.885 288.148C816.445 287.894 816.45 287.481 816.895 287.223C817.341 286.966 818.057 286.963 818.497 287.217C821.927 289.198 822.664 291.872 820.181 293.305L820.176 293.308Z" fill="#593A42"/>
<path d="M842.782 280.257C840.3 281.69 835.668 281.265 832.238 279.284C831.798 279.03 831.803 278.617 832.248 278.359C832.694 278.102 833.41 278.1 833.85 278.354C836.302 279.769 839.664 280.219 841.196 279.335C842.728 278.45 841.943 276.512 839.491 275.096C839.051 274.842 839.056 274.429 839.501 274.172C839.947 273.914 840.663 273.912 841.103 274.166C844.534 276.146 845.27 278.82 842.787 280.254L842.782 280.257Z" fill="#593A42"/>
<path d="M868.114 299.072C871.87 301.241 871.036 305.239 866.26 307.996C861.485 310.753 854.556 311.238 850.799 309.069C847.042 306.9 847.872 302.905 852.657 300.143C857.443 297.38 864.357 296.904 868.114 299.072Z" fill="#593A42"/>
<path d="M850.86 302.538C849.493 303.864 849.396 305.467 850.47 306.85C851.22 307.821 853.717 306.985 852.971 306.023C852.304 305.169 852.524 304.146 853.349 303.345C854.294 302.422 851.816 301.616 850.865 302.535L850.86 302.538Z" fill="#936170"/>
<path d="M852.276 307.246C851.642 307.458 851.288 308.005 851.722 308.376C851.939 308.559 852.131 308.745 852.347 308.928C852.786 309.297 853.57 309.472 854.299 309.234C854.928 309.025 855.292 308.473 854.848 308.107C854.632 307.924 854.435 307.735 854.223 307.555C853.784 307.186 853 307.011 852.271 307.249L852.276 307.246Z" fill="#936170"/>
<path d="M895.979 338.131C888.499 331.731 859.779 304.763 893.928 307.849C909.015 309.173 923.273 313.937 935.74 318.365C946.443 322.123 956.742 326.405 966.767 330.788L921.395 356.983C912.478 350.893 903.781 344.705 895.979 338.131Z" fill="#FFF3DB"/>
<path d="M1057.59 140.136C1058.09 140.094 1065 142.28 1069.22 143.637L1063.98 149.593L1059.3 146.893C1059.3 146.893 1056.87 140.196 1057.59 140.136Z" fill="#FEB8AC"/>
<path d="M1046.81 151.502C1045.81 149.969 1048.21 138.163 1052.52 136.372C1056.84 134.582 1071.76 140.762 1071.76 140.762L1069.23 143.637C1065 142.277 1058.1 140.094 1057.6 140.136C1056.88 140.196 1059.31 146.893 1059.31 146.893C1059.31 146.893 1060.51 155.125 1059.89 155.836C1059.27 156.548 1047.82 153.034 1046.82 151.502L1046.81 151.502Z" fill="#352328"/>
<path d="M1070.07 121.544C1069.15 121.372 1061.44 124.298 1061.44 124.298C1061.44 124.298 1057.84 125.787 1057.12 125.612C1056.41 125.436 1056.98 121.017 1059.74 119.477C1068.51 117.658 1092.27 120.693 1114.46 140.988L1109.14 140.62C1088.69 124.124 1070.08 121.541 1070.08 121.541L1070.07 121.544Z" fill="#352328"/>
<path d="M1061.44 124.295C1061.44 124.295 1069.15 121.366 1070.08 121.541C1070.08 121.541 1088.69 124.124 1109.14 140.62L1077.25 138.407L1061.44 124.295Z" fill="#FEB8AC"/>
<path d="M1054.17 175.698C1048.98 171.008 1063.97 158.676 1063.97 158.676C1054.85 140.209 1078.83 132.385 1102.96 136.165C1127.1 139.945 1214.85 187.559 1214.85 187.559L1161.02 218.633L1097.68 169.46C1071.85 183.908 1059.36 180.389 1054.17 175.698Z" fill="#593A42"/>
<path d="M1191.11 201.263L1161.03 218.633L1097.68 169.46C1097.68 169.46 1101.98 167.506 1106.76 164.318C1106.76 164.318 1169.4 191.871 1191.11 201.263Z" fill="#352328"/>
<path d="M1078.11 151.146C1082.76 153.829 1089.57 154.246 1093.32 152.082C1097.07 149.917 1096.34 145.985 1091.7 143.303C1087.05 140.62 1080.24 140.203 1076.49 142.367C1072.74 144.532 1073.47 148.464 1078.11 151.146Z" fill="#352328"/>
<path d="M1082.13 148.828C1083.59 149.67 1085.58 149.889 1086.57 149.314C1087.57 148.739 1087.2 147.592 1085.73 146.747C1084.27 145.902 1082.28 145.686 1081.29 146.261C1080.29 146.836 1080.66 147.983 1082.13 148.828Z" fill="#191113"/>
<path d="M1070.11 155.213C1071.57 156.055 1073.56 156.272 1074.55 155.696C1075.55 155.121 1075.17 153.974 1073.71 153.132C1072.26 152.29 1070.26 152.071 1069.27 152.646C1068.27 153.221 1068.65 154.368 1070.11 155.213Z" fill="#191113"/>
<path d="M1052.45 175.679C1055.39 177.38 1060.83 177.004 1064.58 174.839C1068.33 172.674 1068.98 169.536 1066.03 167.835C1063.09 166.134 1057.65 166.51 1053.9 168.675C1050.15 170.839 1049.5 173.975 1052.45 175.679Z" fill="#191113"/>
<path d="M1056.84 168.044C1058.65 167.426 1060.82 167.377 1062.71 167.864C1064.03 168.204 1062.89 169.334 1061.59 168.997C1060.43 168.697 1059.03 168.794 1057.95 169.168C1056.7 169.598 1055.6 168.473 1056.85 168.044L1056.84 168.044Z" fill="#593A42"/>
<path d="M1063.24 168.687C1063.53 168.401 1064.28 168.238 1064.78 168.44C1065.03 168.536 1065.28 168.627 1065.53 168.724C1066.03 168.926 1066.27 169.279 1065.94 169.607C1065.65 169.893 1064.9 170.056 1064.4 169.854C1064.16 169.754 1063.9 169.666 1063.65 169.57C1063.15 169.368 1062.91 169.015 1063.24 168.684L1063.24 168.687Z" fill="#593A42"/>
<path d="M1090.43 163.03C1090.43 163.03 1103.51 160.344 1106.53 164.586C1109.55 168.828 1087.89 169.096 1087.89 169.096C1087.89 169.096 1090.36 166.931 1090.43 163.033L1090.43 163.03Z" fill="#FEB8AC"/>
<path d="M1100.32 166.027C1096.89 165.977 1093.3 166.237 1090 166.835C1089.31 166.961 1089.03 166.333 1089.72 166.207C1093.09 165.597 1096.82 165.328 1100.33 165.378C1101.05 165.39 1101.05 166.036 1100.32 166.027Z" fill="#FC8686"/>
<path d="M1089.07 159.288C1091.39 161.881 1091.48 164.606 1089.82 167.363C1087.57 171.122 1082.81 173.262 1076.93 175.073C1076.29 175.27 1075.73 174.706 1076.38 174.512C1081.62 172.902 1085.73 171.129 1088.24 167.932C1090.37 165.213 1090.45 162.249 1088.09 159.616C1087.76 159.247 1088.74 158.921 1089.07 159.291L1089.07 159.288Z" fill="#352328"/>
<path d="M1006.19 203.009C1006.27 204.49 1006.44 205.946 1006.81 207.369C993.622 198.112 989.664 189.764 991.546 188.671C993.894 187.316 1004.86 190.981 1011.32 193.341C1007.46 196.255 1006.03 199.075 1006.19 203.006L1006.19 203.009Z" fill="#FA9700"/>
<path d="M1006.19 203.009C1006.03 199.078 1007.45 196.261 1011.31 193.344C1014.14 194.376 1016.11 195.161 1016.11 195.161L1011.27 210.305C1009.67 209.323 1008.19 208.34 1006.81 207.372C1006.44 205.946 1006.27 204.493 1006.18 203.012L1006.19 203.009Z" fill="#FF740C"/>
<path d="M1054.92 181.063C1056.14 181.667 1057.38 182.3 1058.61 182.968L1032.39 185.766C1032.39 185.766 1031.15 184.736 1029.5 183.232C1033.36 182.049 1038.17 181.474 1042.02 181.018C1046.25 180.589 1050.68 180.619 1054.91 181.068L1054.92 181.063Z" fill="#FF740C"/>
<path d="M1021.15 171.58C1023.09 170.461 1038.35 172.918 1054.92 181.066C1050.69 180.616 1046.25 180.586 1042.03 181.015C1038.18 181.474 1033.36 182.046 1029.5 183.229C1025.43 179.536 1018.75 172.964 1021.15 171.577L1021.15 171.58Z" fill="#FA9700"/>
<path d="M995.49 190.955C996.097 190.45 1012.88 196.115 1013.08 197.212C1013.29 198.308 1011.61 206.26 1010.29 205.964C1008.97 205.664 994.29 191.95 995.495 190.952L995.49 190.955Z" fill="#FEB8AC"/>
<path d="M1025.1 173.86C1024.23 174.211 1034.04 183.899 1035.94 184.018C1037.84 184.138 1051.61 183.165 1051.1 182.406C1050.58 181.644 1026.82 173.167 1025.09 173.863L1025.1 173.86Z" fill="#FEB8AC"/>
<path d="M1096.11 256.111C1096.11 256.111 1035.29 232.778 1017.78 217.837C1000.27 202.896 1014.43 192.04 1020.71 188.416C1026.98 184.792 1045.79 176.619 1071.66 186.731C1097.54 196.84 1137.95 231.953 1137.95 231.953L1096.11 256.114L1096.11 256.111Z" fill="#FFF3DB"/>
<path d="M1021.68 187.879C1028.77 184.065 1046.99 177.097 1071.66 186.731C1097.54 196.841 1137.95 231.953 1137.95 231.953L1136.71 232.67C1113.18 207.682 1069.54 184.424 1021.68 187.879Z" fill="#FFF9EE"/>
<path d="M1043.83 199.216C1034.64 197.084 1025.17 189.474 1023.31 190.549C1021.45 191.624 1034.63 197.087 1038.32 202.395C1041.18 206.497 1021.94 211.107 1013.06 212.989C1003.36 200.567 1015.13 191.638 1020.7 188.419C1026.28 185.199 1041.45 178.524 1062.66 183.849C1059.79 188.503 1051.32 200.955 1043.83 199.216Z" fill="#FA9700"/>
<path d="M1034.02 228.303C1041.55 230.734 1049.83 232.484 1058.48 233.782C1075.8 236.398 1093.53 237.862 1109.11 243.158C1110.74 243.698 1112.86 244.379 1115.04 245.184L1096.11 256.111C1096.11 256.111 1058.61 241.719 1034.02 228.303Z" fill="#FA9700"/>
<path d="M1099.28 210.225C1097.03 205.234 1093.99 200.452 1089.79 196.105C1113.02 210.299 1137.95 231.953 1137.95 231.953L1119.03 242.88C1117.64 241.622 1116.45 240.4 1115.52 239.461C1106.34 230.472 1103.8 220.231 1099.28 210.225Z" fill="#FA9700"/>
<path d="M1021.67 187.876C1027.87 184.542 1042.58 178.805 1062.66 183.849C1061.72 185.389 1060.15 187.778 1058.21 190.227C1046.51 187.9 1034.24 186.968 1021.67 187.879L1021.67 187.876Z" fill="#FF9E10"/>
<path d="M1137.95 231.953L1136.71 232.67C1126.32 221.634 1112 210.937 1095.14 202.731C1093.6 200.439 1091.84 198.22 1089.79 196.108C1113.03 210.302 1137.96 231.956 1137.96 231.956L1137.95 231.953Z" fill="#FF9E10"/>
<path d="M1042.29 195.13C1042.59 194.953 1042.59 194.672 1042.29 194.498C1040.61 193.527 1040.08 192.197 1041.13 191.593C1042.17 190.989 1044.48 191.296 1046.16 192.267C1046.46 192.441 1046.95 192.439 1047.25 192.263C1047.56 192.086 1047.56 191.805 1047.26 191.631C1044.91 190.275 1041.74 189.982 1040.04 190.965C1038.34 191.948 1038.84 193.778 1041.19 195.134C1041.49 195.308 1041.98 195.306 1042.29 195.13Z" fill="#593A42"/>
<path d="M1027.46 203.687C1027.77 203.511 1027.77 203.229 1027.47 203.055C1025.79 202.085 1025.26 200.754 1026.3 200.15C1027.35 199.546 1029.65 199.854 1031.33 200.824C1031.64 200.998 1032.12 200.996 1032.43 200.82C1032.73 200.644 1032.74 200.362 1032.44 200.188C1030.09 198.833 1026.92 198.54 1025.22 199.522C1023.51 200.505 1024.02 202.335 1026.37 203.691C1026.67 203.865 1027.16 203.863 1027.46 203.687Z" fill="#593A42"/>
<path d="M1058.17 198.572C1059.99 202.437 1058 205.959 1052.85 208.66C1047.82 211.297 1039.71 212.252 1034.09 209.785C1033.53 209.535 1034.08 208.97 1034.66 209.22C1040.3 211.701 1047.76 210.459 1052.67 207.885C1057.26 205.471 1058.67 202.111 1057.08 198.737C1056.89 198.333 1057.99 198.165 1058.18 198.569L1058.17 198.572Z" fill="#593A42"/>
<path d="M1053.04 208.022C1050.97 206.835 1049.13 205.497 1046.72 204.512C1046.14 204.273 1046.7 203.706 1047.29 203.947C1049.78 204.966 1051.68 206.329 1053.84 207.559C1054.35 207.853 1053.56 208.313 1053.04 208.022Z" fill="#593A42"/>
<path d="M1036.9 206.177C1039.85 207.878 1045.28 207.502 1049.03 205.337C1052.78 203.172 1053.44 200.037 1050.49 198.333C1047.54 196.629 1042.11 197.008 1038.36 199.173C1034.61 201.338 1033.95 204.473 1036.9 206.177Z" fill="#593A42"/>
<path d="M1041.61 198.357C1043.41 197.739 1045.59 197.69 1047.48 198.178C1048.79 198.517 1047.66 199.647 1046.35 199.31C1045.19 199.01 1043.8 199.107 1042.72 199.481C1041.46 199.914 1040.36 198.786 1041.62 198.357L1041.61 198.357Z" fill="#936170"/>
<path d="M1048.01 198.997C1048.3 198.711 1049.05 198.548 1049.55 198.75C1049.8 198.847 1050.06 198.935 1050.3 199.034C1050.8 199.236 1051.04 199.589 1050.71 199.92C1050.43 200.208 1049.68 200.369 1049.18 200.167C1048.94 200.067 1048.68 199.982 1048.43 199.883C1047.93 199.686 1047.69 199.328 1048.02 199L1048.01 198.997Z" fill="#936170"/>
<path d="M925.835 188.472C929.397 187.06 914.929 175.574 920.18 170.253C925.431 164.933 935.145 156.334 926.388 156.595C917.635 156.854 897.536 166.341 899.564 172.795C901.603 179.25 917.482 191.787 925.84 188.474L925.835 188.472Z" fill="#352328"/>
<path d="M899.553 172.79C897.52 166.339 917.63 156.852 926.377 156.59C928.517 156.525 929.546 156.998 929.816 157.812C928.44 158.55 927.148 159.347 925.944 160.236C917.494 166.073 910.45 177.52 912.717 185.771C906.464 182.207 900.722 176.499 899.553 172.79Z" fill="#593A42"/>
<path d="M941.872 215.627C948.934 215.271 957.221 213.026 957.221 213.026C975.002 224.032 1002.04 234.16 1027.09 242.136C966.98 238.019 941.877 215.63 941.877 215.63L941.872 215.627Z" fill="#EFDCBD"/>
<path d="M908.672 217.29C896.393 206.657 886.609 194.801 909.67 185.642C932.731 176.483 950.365 188.623 949.79 188.956C949.214 189.288 991.729 190.124 987.297 200.12C982.865 210.115 957.216 213.023 957.216 213.023C957.216 213.023 948.93 215.268 941.868 215.624C941.868 215.624 966.971 238.013 1027.08 242.13C1060.38 252.723 1090.19 259.518 1090.19 259.518L1022.57 298.557C976.125 273.736 921.331 228.251 908.672 217.284L908.672 217.29Z" fill="#FFF3DB"/>
<path d="M934.613 210.395C934.613 210.395 923.262 214.038 926.432 217.909C929.608 221.783 943.426 213.143 943.426 213.143C943.426 213.143 939.302 212.796 934.613 210.395Z" fill="#FEB8AC"/>
<path d="M983.874 191.097C987.067 192.941 986.358 196.335 982.294 198.682C978.229 201.029 972.35 201.438 969.157 199.594C965.964 197.751 966.673 194.356 970.737 192.01C974.802 189.663 980.686 189.257 983.874 191.097Z" fill="#593A42"/>
<path d="M938.064 199.55C940.177 198.33 939.545 196.058 936.634 194.377C936.263 194.163 935.651 194.163 935.271 194.382C934.89 194.602 934.886 194.952 935.262 195.169C937.348 196.373 938.011 198.022 936.71 198.774C935.408 199.525 932.553 199.142 930.467 197.938C930.096 197.724 929.484 197.723 929.104 197.943C928.723 198.162 928.719 198.513 929.095 198.73C932.006 200.411 935.942 200.775 938.054 199.556L938.064 199.55Z" fill="#593A42"/>
<path d="M950.499 192.371C952.611 191.151 951.98 188.879 949.068 187.198C948.698 186.984 948.086 186.983 947.705 187.203C947.325 187.423 947.321 187.773 947.697 187.99C949.783 189.194 950.446 190.843 949.145 191.595C947.843 192.346 944.987 191.963 942.901 190.759C942.531 190.545 941.919 190.544 941.538 190.764C941.158 190.983 941.154 191.334 941.53 191.55C944.441 193.231 948.377 193.596 950.489 192.376L950.499 192.371Z" fill="#593A42"/>
<path d="M931.261 215.869C933.416 214.402 936.036 213.095 938.868 212.071C939.447 211.862 939.959 212.388 939.379 212.597C936.623 213.589 934.102 214.862 931.997 216.294C931.556 216.595 930.825 216.167 931.261 215.869Z" fill="#FC8686"/>
<path d="M969.213 194.043C968.052 195.17 967.967 196.531 968.874 197.708C969.517 198.53 971.634 197.822 971.001 197.006C970.432 196.278 970.621 195.41 971.324 194.73C972.129 193.946 970.017 193.259 969.213 194.043Z" fill="#936170"/>
<path d="M970.418 198.044C969.878 198.225 969.575 198.691 969.95 199.005C970.137 199.16 970.299 199.323 970.482 199.474C970.851 199.786 971.521 199.936 972.14 199.733C972.674 199.555 972.983 199.086 972.608 198.772C972.421 198.617 972.259 198.454 972.076 198.303C971.707 197.991 971.037 197.841 970.423 198.042L970.418 198.044Z" fill="#936170"/>
<path d="M907.293 199.656C909.282 197.446 888.112 190.183 888.388 184.094C888.653 178.005 889.06 169.026 881.52 171.655C873.98 174.285 863.991 188.094 871.108 193.175C878.225 198.255 902.625 204.845 907.298 199.659L907.293 199.656Z" fill="#352328"/>
<path d="M1007.73 251.56C997.79 247.228 997.925 239.838 1003.05 233.952C1011.02 236.87 1019.16 239.611 1027.09 242.138C1034.37 244.455 1041.48 246.589 1048.15 248.514C1038.97 254.496 1017.96 256.143 1007.73 251.565L1007.73 251.56Z" fill="#593A42"/>
<path d="M927.908 224.973C933.019 229.722 936.529 234.476 934.663 238.63C922.383 228.928 913.034 221.067 908.678 217.292C906.485 215.39 904.367 213.451 902.509 211.494C914.959 212.85 920.004 217.311 927.908 224.973Z" fill="#593A42"/>
<path d="M1051.25 282.009L1022.58 298.563C1012.56 293.203 1002.14 286.88 991.839 280.149C995.946 278.405 1000.89 276.908 1006.21 275.536C1024 271.083 1041.71 273.129 1051.26 282.009L1051.25 282.009Z" fill="#593A42"/>
<path d="M932.005 207.334C934.026 210.397 938.345 212.041 943.674 212.863C948.302 213.576 952.747 212.773 957.1 211.829C957.733 211.692 957.991 212.28 957.362 212.414C952.332 213.509 947.759 214.123 942.5 213.312C937.142 212.485 932.975 210.496 930.994 207.496C930.754 207.132 931.775 206.976 932.01 207.337L932.005 207.334Z" fill="#593A42"/>
<path d="M1003.05 233.953L1003.06 233.958C1004.97 234.655 1006.87 235.34 1008.79 236.014C1009.15 236.139 1009.5 236.264 1009.86 236.389C1011.36 236.912 1012.85 237.429 1014.35 237.938C1014.89 238.125 1015.44 238.307 1015.98 238.492C1017.33 238.952 1018.7 239.404 1020.05 239.852C1020.58 240.029 1021.11 240.202 1021.64 240.372C1023.46 240.969 1025.28 241.562 1027.08 242.136C1017.17 241.457 1008.21 240.278 1000.14 238.785C1000.72 237.126 1001.7 235.488 1003.04 233.953L1003.05 233.953Z" fill="#352328"/>
<path d="M871.103 193.171C863.986 188.091 873.981 174.285 881.515 171.652C883.682 170.898 885.187 171.102 886.233 171.919C883.977 176.692 882.665 181.633 883.581 186.504C885.214 194.562 894.546 198.175 905.86 200.644C898.936 203.825 877.667 197.857 871.103 193.171Z" fill="#593A42"/>
<path d="M1036.82 290.344C1036.82 290.344 986.214 257.261 944.788 251.494C903.362 245.732 894.222 261.882 897.69 272.219C897.69 272.219 893.994 282.287 883.69 287.944C883.69 287.944 906.654 295.844 918.616 279.538C918.616 279.538 937.151 270.303 960.865 280.122C984.574 289.943 986.304 319.508 986.304 319.508L1036.82 290.344Z" fill="#FF740C"/>
<path d="M897.496 272.708C913.503 270.829 918.616 279.538 918.616 279.538C906.659 295.847 883.69 287.945 883.69 287.945C892.653 283.027 896.613 274.776 897.491 272.705L897.496 272.708Z" fill="#FFF3DB"/>
<path d="M978.076 277.331C1004.44 282.447 1019.81 290.084 1027.96 295.457L986.299 319.511C986.299 319.511 984.574 289.943 960.86 280.125C937.151 270.303 918.611 279.541 918.611 279.541C918.611 279.541 933.577 268.697 978.071 277.334L978.076 277.331Z" fill="#ED4714"/>
<path d="M881.391 290.362C885.618 290.439 889.149 289.125 889.277 287.424C889.405 285.73 886.078 284.294 881.851 284.218C877.624 284.141 874.097 285.458 873.969 287.153C873.841 288.848 877.168 290.283 881.396 290.359L881.391 290.362Z" fill="#593A42"/>
<path d="M908.559 257.685C907.719 256.703 910.754 250.705 913.779 250.203C916.804 249.7 938.727 258.549 939.901 262.169C941.065 265.789 917.227 259.604 915.06 259.474C912.888 259.341 918.414 262.109 916.714 262.394C915.02 262.682 910.464 259.907 908.559 257.685Z" fill="#593A42"/>
<path d="M904.481 269.885C905.88 270.693 907.737 270.933 908.628 270.419C909.519 269.904 909.103 268.832 907.704 268.024C906.306 267.217 904.448 266.976 903.557 267.491C902.666 268.005 903.077 269.075 904.481 269.885Z" fill="#593A42"/>
<path d="M906.86 276.08C911.202 277.038 915.317 279.616 911.965 282.282C911.408 282.723 910.125 282.311 910.687 281.867C913.421 279.689 910.001 277.685 906.478 276.905C905.605 276.713 905.982 275.885 906.86 276.08Z" fill="#593A42"/>
<path d="M877.524 285.066C878.247 284.946 878.949 284.866 879.705 284.869C881.615 284.873 881.452 286.577 879.552 286.572C879.059 286.571 878.596 286.656 878.127 286.733C876.294 287.038 875.7 285.372 877.529 285.069L877.524 285.066Z" fill="#936170"/>
<path d="M882.522 284.715C883.104 284.676 883.586 284.688 884.158 284.752C884.948 284.844 885.339 285.406 885.116 285.814C884.852 286.292 884.049 286.47 883.265 286.381C883.215 286.381 883.17 286.378 883.12 286.379C882.324 286.433 881.55 286.218 881.377 285.73C881.232 285.311 881.725 284.77 882.522 284.715Z" fill="#936170"/>
<path d="M839.406 332.484C839.406 332.484 835.017 329.442 832.239 326.057C834.78 326.12 837.337 326.053 839.852 325.817L841.473 330.383L839.401 332.487L839.406 332.484Z" fill="#EFDCBD"/>
<path d="M832.244 326.054C831.409 325.041 830.724 323.998 830.347 322.994C830.212 322.633 830.141 322.263 830.115 321.884C829.239 321.488 828.429 320.951 828.252 320.368C828.102 320.004 828.275 319.596 829.026 319.596C829.608 319.597 830.028 319.885 830.358 320.134C830.364 320.119 830.374 320.108 830.369 320.094C829.553 319.229 828.259 318.355 828.2 317.35C828.21 316.917 828.606 316.625 829.37 316.777C830.299 316.955 830.903 317.639 831.376 318.08C831.326 317.589 830.946 315.046 831.534 314.495C832.072 314.008 832.59 314.388 832.844 314.777C833.119 315.184 833.173 315.638 833.163 316.089C835.781 313.693 839.54 312.054 842.307 312.756C848.002 314.194 838.519 322.094 838.519 322.094L839.842 325.811C837.327 326.047 834.765 326.111 832.229 326.052L832.244 326.054Z" fill="#FFF3DB"/>
<path d="M821.107 335.509C821.107 335.509 818.065 330.325 820.432 329.974C822.793 329.627 824.376 333.621 824.376 333.621C824.376 333.621 826.275 327.348 829.04 327.915C831.809 328.485 829.55 332.666 829.55 332.666C829.55 332.666 841.843 327.938 845.246 326.989C848.648 326.04 855.289 325.591 852.74 329.431L858.289 334.178C858.289 334.178 868.553 326.221 876.048 329.005C883.539 331.786 884.827 335.443 883.64 336.128C882.454 336.813 879.803 336.311 879.803 336.311C879.803 336.311 885.743 339.012 884.068 340.664C882.957 341.762 878.868 340.401 878.868 340.401C878.868 340.401 884.067 344.449 881.465 345.842C880.079 346.586 875.852 344.694 875.852 344.694C875.852 344.694 877.002 349.606 873.896 350.212C870.796 350.821 862.539 349.829 862.539 349.829C862.539 349.829 878.575 353.601 882.966 356.819C887.353 360.039 885.424 361.324 881.882 361.337C881.882 361.337 891.567 365.9 895.485 371.931L859.113 392.93C859.113 392.93 824.813 346.394 820.741 341.297C820.741 341.297 810.524 337.155 812.4 335.279C814.246 333.432 821.097 335.503 821.097 335.503L821.107 335.509Z" fill="#FFF3DB"/>
<path d="M884.215 372.302C880.621 369.742 868.977 364.314 878.334 361.948C874.587 360.755 865.696 358.211 872.961 356.094C869.485 355.544 856.409 353.659 856.718 350.924C856.918 348.976 862.792 349.518 867.683 350.295C864.969 350.127 862.539 349.834 862.539 349.834C862.539 349.834 878.575 353.607 882.966 356.825C887.353 360.045 885.424 361.33 881.882 361.343C881.882 361.343 891.567 365.906 895.485 371.936L877.424 382.364C876.049 381.211 875.083 379.931 874.81 378.525C874.148 375.391 878.507 372.076 884.215 372.296L884.215 372.302Z" fill="#EFDCBD"/>
<path d="M841.338 314.08C842.965 315.812 837.147 321.631 837.147 321.631L839.378 330.896C839.378 330.896 832.667 322.779 832.295 321.807C831.923 320.834 839.287 311.914 841.328 314.08L841.338 314.08Z" fill="#FEB8AC"/>
<path d="M801.472 338.94C801.917 338.717 802.568 338.775 803.1 338.834C803.085 338.825 803.08 338.811 803.065 338.797C801.457 338.464 799.474 338.307 798.283 337.579C797.799 337.254 797.764 336.886 798.517 336.708C799.424 336.487 800.67 336.766 801.529 336.915C800.931 336.57 797.747 334.818 797.564 334.187C797.416 333.622 798.251 333.705 798.886 333.898C799.56 334.097 800.119 334.413 800.627 334.753C799.882 331.976 800.876 329.325 803.781 328.794C809.757 327.701 811.554 337.183 811.554 337.183L823.242 342.227L824.067 344.581C824.067 344.581 812.563 343.575 806.344 340.967C805.829 340.751 805.354 340.5 804.905 340.229C803.785 340.264 802.558 340.174 801.756 339.809C801.231 339.593 800.897 339.227 801.462 338.94L801.472 338.94Z" fill="#FFF3DB"/>
<path d="M804.543 330.153C807.753 330.822 809.965 337.364 809.965 337.364L822.311 342.782C822.311 342.782 807.868 339.916 806.477 339.333C805.085 338.749 800.508 329.309 804.543 330.147L804.543 330.153Z" fill="#FEB8AC"/>
<path d="M843.3 337.49C843.47 337.9 843.346 338.273 842.945 338.597C841.806 339.517 839.005 339.57 834.607 338.736C834.393 338.694 834.28 338.565 834.356 338.441C834.422 338.318 834.657 338.251 834.87 338.293C839.884 339.24 841.674 338.828 842.291 338.329C842.557 338.118 842.63 337.883 842.513 337.607C842.184 336.816 840.393 335.932 839.222 335.598C839.059 335.549 838.965 335.443 839.011 335.337C839.052 335.234 839.212 335.158 839.401 335.152C840.685 335.124 842.012 335.214 843.467 335.424C843.711 335.461 843.964 335.497 844.222 335.536C845.528 335.735 847.008 335.966 848.229 335.757C848.652 335.684 848.942 335.551 849.084 335.361C849.25 335.133 849.204 334.835 848.939 334.537C848.408 333.896 847.238 333.555 846.103 333.223L845.855 333.15C845.696 333.104 845.608 333.001 845.644 332.895C845.68 332.794 845.825 332.716 846.009 332.707C846.312 332.691 846.616 332.676 846.925 332.663C848.353 332.598 849.831 332.532 851.068 332.189C851.657 332.014 851.978 331.818 852.01 331.611C852.058 331.303 851.505 330.88 850.51 330.456C850.332 330.382 850.294 330.233 850.429 330.126C850.555 330.019 850.819 329.998 851.002 330.075C851.888 330.448 852.921 331.027 852.83 331.645C852.771 332.027 852.305 332.348 851.437 332.609C850.204 332.95 848.835 333.044 847.492 333.106C848.374 333.396 849.211 333.758 849.682 334.319C850.056 334.737 850.115 335.182 849.843 335.539C849.747 335.668 849.611 335.781 849.441 335.879C849.191 336.024 848.861 336.134 848.468 336.201C847.023 336.442 845.428 336.198 844.018 335.985C843.765 335.943 843.517 335.909 843.283 335.873C842.439 335.75 841.644 335.672 840.878 335.635C841.943 336.11 843.049 336.801 843.33 337.484L843.3 337.49Z" fill="#EFDCBD"/>
<path d="M844.762 344.854C844.643 344.745 844.7 344.604 844.89 344.529C845.079 344.459 845.333 344.49 845.451 344.598C846.032 345.125 846.868 345.567 848.008 345.947C850.213 346.66 851.115 346.579 851.475 346.388C852.171 345.987 850.977 345.043 850.587 344.76C850.035 344.332 849.357 344.027 848.573 343.857C848.399 343.827 848.265 343.801 848.171 343.781C847.972 343.736 847.869 343.607 847.935 343.489C848.006 343.368 848.226 343.304 848.434 343.338C848.588 343.363 848.732 343.389 848.881 343.423C849.755 343.569 851.131 343.682 851.775 343.487C851.945 343.434 852.04 343.368 852.081 343.276C852.132 343.167 852.098 343.078 851.985 342.989C851.393 342.543 849.037 342.362 847.962 342.366C847.734 342.367 847.556 342.264 847.557 342.132C847.559 342 847.739 341.896 847.968 341.895C848.007 341.895 851.588 341.917 852.629 342.697C852.901 342.9 852.983 343.138 852.871 343.385C852.774 343.607 852.523 343.786 852.149 343.899C851.72 344.027 851.167 344.066 850.6 344.057C850.823 344.185 851.035 344.319 851.232 344.474C852.569 345.454 852.859 346.251 852.033 346.728C850.782 347.393 848.388 346.618 847.6 346.359C846.347 345.936 845.417 345.446 844.767 344.856L844.762 344.854Z" fill="#EFDCBD"/>
<path d="M858.693 365.839C858.898 365.789 859.136 365.846 859.224 365.966C859.592 366.49 861.037 367.151 862.426 367.439C863.245 367.605 863.942 367.626 864.371 367.492C864.89 367.318 865.147 367.056 865.17 366.694C865.209 365.878 863.958 364.768 862.858 364.359C862.67 364.291 862.622 364.147 862.737 364.04C862.853 363.928 863.107 363.896 863.29 363.961C865.258 364.64 867.402 365.075 867.782 364.872C867.862 364.826 867.894 364.619 867.501 364.144C866.219 362.652 863.417 361.034 860.828 360.291C860.655 360.243 860.567 360.128 860.622 360.022C860.673 359.913 860.848 359.84 861.042 359.848C862.663 359.905 865.44 359.775 865.598 358.935C865.651 358.677 865.519 358.456 865.188 358.259C864.096 357.594 861.168 357.401 859.909 357.448C859.685 357.458 859.493 357.358 859.484 357.232C859.471 357.103 859.646 356.99 859.87 356.98C861.149 356.933 864.42 357.105 865.779 357.935C866.268 358.235 866.483 358.59 866.399 358.981C866.214 359.984 864.087 360.253 862.509 360.314C864.838 361.195 867.061 362.589 868.22 363.934C868.406 364.158 868.976 364.839 868.345 365.203C868.335 365.209 868.325 365.215 868.315 365.221C867.68 365.559 866.23 365.317 864.965 364.997C865.556 365.518 865.992 366.139 865.966 366.708C865.947 367.096 865.715 367.418 865.279 367.67C865.124 367.759 864.949 367.838 864.749 367.907C864.09 368.111 863.185 368.102 862.133 367.888C860.5 367.552 858.917 366.806 858.456 366.158C858.368 366.038 858.479 365.9 858.683 365.85L858.693 365.839Z" fill="#EFDCBD"/>
<path d="M838.218 359.15C838.235 359.021 838.42 358.92 838.649 358.925C838.868 358.929 839.045 359.038 839.029 359.167C838.928 360.259 839.909 361.496 841.708 361.679C842.354 361.717 842.897 361.609 843.233 361.38C843.594 361.132 843.687 360.764 843.488 360.366C843.439 360.263 843.515 360.156 843.67 360.095C843.834 360.04 844.038 360.054 844.167 360.128C845.561 360.933 847.077 361.501 847.525 361.396C847.755 361.332 847.815 361.257 847.836 361.206C847.999 360.826 847.047 360.103 846.643 359.794L846.534 359.708C846.396 359.606 846.427 359.462 846.617 359.381C846.792 359.303 847.051 359.325 847.184 359.425L847.292 359.51C847.85 359.936 848.886 360.725 848.625 361.321C848.585 361.418 848.494 361.539 848.299 361.652C848.188 361.716 848.038 361.779 847.849 361.832C846.921 362.048 845.401 361.407 844.397 360.902C844.359 361.198 844.172 361.466 843.856 361.683C843.33 362.038 842.542 362.201 841.583 362.145C839.238 361.906 838.1 360.423 838.218 359.15Z" fill="#EFDCBD"/>
<path d="M836.552 350.541C836.466 350.705 836.32 350.846 836.125 350.959C835.929 351.072 835.68 351.159 835.386 351.214C834.937 351.302 834.455 351.272 833.974 351.122C832.849 350.778 831.879 349.826 831.636 349.298C831.578 349.172 831.704 349.042 831.923 349.007C832.142 348.972 832.365 349.043 832.418 349.172C832.598 349.553 833.419 350.42 834.366 350.707C834.649 350.795 834.902 350.814 835.142 350.767C835.481 350.697 835.686 350.584 835.777 350.406C836.072 349.836 835.178 348.794 834.591 348.374C834.453 348.277 834.479 348.136 834.659 348.044C834.834 347.96 835.088 347.979 835.231 348.079C835.823 348.507 836.974 349.721 836.552 350.535L836.552 350.541Z" fill="#EFDCBD"/>
<path d="M831.034 348.39C831.034 348.39 830.999 348.41 830.984 348.419C830.564 348.662 829.966 348.744 829.32 348.637C827.608 348.313 826.866 346.07 826.875 345.272C826.881 345.143 827.062 345.039 827.286 345.035C827.509 345.037 827.687 345.14 827.691 345.269C827.682 346.125 828.492 347.986 829.564 348.188C829.927 348.247 830.23 348.209 830.436 348.073C830.756 347.871 830.835 347.5 830.62 347.168C830.541 347.048 830.647 346.912 830.857 346.866C831.066 346.819 831.299 346.878 831.378 346.999C831.706 347.494 831.565 348.055 831.034 348.39Z" fill="#EFDCBD"/>
<path d="M877.479 366.442C877.703 366.421 877.906 366.51 877.945 366.636C878.198 367.603 880.44 370.383 882.606 370.183C882.9 370.15 883.08 370.063 883.191 369.908C883.419 369.565 883.197 368.974 882.828 368.577C882.724 368.482 882.636 368.402 882.562 368.336C882.444 368.233 882.475 368.09 882.655 368.014C882.835 367.939 883.078 367.958 883.217 368.055C883.315 368.124 883.414 368.215 883.512 368.313C883.621 368.41 883.729 368.519 883.862 368.636C884.728 369.454 886.535 371.162 887.576 371.052C888.084 370.987 888.22 370.828 888.276 370.716C888.713 369.859 886.263 367.803 885.408 367.309C885.25 367.218 885.252 367.069 885.412 366.976C885.572 366.884 885.831 366.883 885.989 366.974C886.651 367.356 889.66 369.666 889.055 370.843C888.989 370.966 888.874 371.108 888.658 371.232C888.443 371.356 888.153 371.455 887.73 371.511C886.545 371.636 885.335 370.822 884.098 369.732C884.082 369.85 884.041 369.965 883.965 370.071C883.758 370.385 883.343 370.585 882.755 370.644C879.882 370.911 877.454 367.792 877.163 366.71C877.129 366.581 877.28 366.46 877.504 366.439L877.479 366.442Z" fill="#FFF3DB"/>
<path d="M852.391 374.483L852.338 374.388C852.264 374.265 852.385 374.133 852.599 374.089C852.809 374.048 853.042 374.113 853.11 374.233L853.164 374.328C853.813 375.477 855.175 377.87 857.36 378.155C857.668 378.188 858.061 378.201 858.211 378.086C858.497 377.864 858.197 377.135 857.514 376.394C857.405 376.28 857.487 376.136 857.681 376.075C857.881 376.011 858.124 376.053 858.232 376.167C858.572 376.531 859.622 377.774 858.865 378.359C858.83 378.385 858.79 378.414 858.75 378.437C858.414 378.631 857.891 378.693 857.181 378.612C854.543 378.269 853.084 375.71 852.391 374.477L852.391 374.483Z" fill="#EFDCBD"/>
<path d="M859.973 375.299C860.167 375.233 860.416 375.266 860.529 375.378C862.345 377.137 864.203 378.285 865.055 378.164C865.473 378.105 865.777 377.645 865.889 376.895C865.911 376.768 866.106 376.667 866.334 376.678C866.558 376.685 866.726 376.8 866.7 376.929C866.587 377.662 866.313 378.151 865.858 378.414C865.678 378.518 865.473 378.585 865.234 378.62C863.411 378.874 860.844 376.606 859.825 375.619C859.712 375.507 859.773 375.363 859.968 375.297L859.973 375.299Z" fill="#EFDCBD"/>
<path d="M862.177 339.348C865.581 340.533 870.929 339.055 874.116 336.045C877.302 333.035 877.121 329.63 873.717 328.445C870.312 327.26 864.964 328.738 861.777 331.748C858.591 334.758 858.772 338.163 862.177 339.348Z" fill="#593A42"/>
<path d="M867.156 329.31C868.829 328.721 871.133 328.629 872.787 329.249C873.699 329.591 872.651 330.361 871.749 330.026C870.768 329.662 869.136 329.742 868.157 330.09C867.233 330.418 866.217 329.647 867.151 329.313L867.156 329.31Z" fill="#936170"/>
<path d="M873.99 329.782C874.566 329.929 874.986 330.189 875.186 330.536C875.528 331.126 873.952 331.494 873.61 330.897C873.547 330.786 873.508 330.728 873.324 330.68C872.332 330.425 873.003 329.524 873.99 329.782Z" fill="#936170"/>
<path d="M854.049 334.771C854.983 335.311 856.25 335.447 856.886 335.08C857.522 334.713 857.281 333.978 856.352 333.442C855.423 332.905 854.146 332.763 853.51 333.13C852.874 333.497 853.115 334.232 854.049 334.771Z" fill="#593A42"/>
<path d="M846.681 339.025C847.615 339.565 848.882 339.701 849.518 339.334C850.153 338.967 849.913 338.232 848.983 337.696C848.054 337.159 846.777 337.018 846.142 337.385C845.506 337.752 845.747 338.486 846.681 339.025Z" fill="#593A42"/>
</g>
</g>
<g clip-path="url(#clip2_110_275)">
<path d="M537.597 -201.988C526.703 -201.988 517.936 -196.927 500.403 -186.804L135.802 23.6987C135.45 23.902 135.101 24.1033 134.756 24.3026L130.421 11.2981L112.168 5.3926L109.484 9.68749V44.5834L109.53 44.5533C109.511 44.7587 109.501 44.9653 109.501 45.1731C109.501 51.4629 118.268 56.5244 135.802 66.6476L385.508 210.815C403.042 220.939 411.809 226 422.703 226C433.597 226 442.364 220.939 459.898 210.815L824.498 0.313156C841.807 -9.67981 850.572 -14.7405 850.795 -20.9192L850.888 -20.9136V-56.3463L836.393 -52.0515L819.355 -45.6049L574.792 -186.804C557.258 -196.927 548.492 -201.988 537.597 -201.988Z" fill="#E44449"/>
<rect width="374.233" height="506.902" rx="21.4744" transform="matrix(0.866025 0.5 -0.866026 0.5 537.597 -244)" fill="#F15156"/>
<g clip-path="url(#clip3_110_275)">
<path d="M358.127 47.6213C345.27 41.1922 331.068 30.311 332.834 29.0008C334.508 27.7655 353.441 29.9738 361.766 31.0175C358.817 33.6847 358.049 37.0045 357.598 40.0789C357.277 42.6274 357.408 45.1599 358.122 47.6184L358.127 47.6213Z" fill="#FA9700"/>
<path d="M357.603 40.0816C358.054 37.0071 358.817 33.6845 361.771 31.0202C364.15 31.3188 365.67 31.52 365.67 31.52L366.074 51.0182C363.605 50.1886 360.898 49.0067 358.132 47.624C357.423 45.1625 357.286 42.633 357.608 40.0845L357.603 40.0816Z" fill="#F27006"/>
<path d="M451.646 67.1818C447.311 74.2221 435.786 78.3306 424.272 81.388L401.044 66.2607L431.423 46.1018C436.214 46.9142 441.044 47.8013 445.879 48.7486C451.891 54.2836 455.516 60.7463 451.641 67.1847L451.646 67.1818Z" fill="#F27006"/>
<path d="M451.646 67.1817C455.517 60.7462 451.891 54.2835 445.884 48.7455C503.133 59.9493 561.262 79.3777 561.262 79.3777L487.011 122.246L424.277 81.3907C435.791 78.3333 447.311 74.2277 451.651 67.1845L451.646 67.1817Z" fill="#FA9700"/>
<path d="M332.709 29.4838C341.395 29.3832 349.274 33.4353 354.498 37.4454C358.927 40.9386 360.511 44.8069 360.586 48.8099C348.154 43.0944 333.336 32.1752 332.704 29.4866L332.709 29.4838Z" fill="#FEB8AC"/>
<path d="M443.486 71.4361C461.968 60.766 433.678 40.4391 419.791 30.826C405.899 21.2159 381.717 20.1611 368.196 27.9672C354.676 35.7733 356.502 49.7352 373.148 57.7557C389.793 65.7763 425.005 82.1063 443.486 71.4361Z" fill="#FFF3DB"/>
<path d="M371.382 26.3789C385.256 20.3721 406.926 21.93 419.781 30.826C426.718 35.6224 437.241 43.0967 443.738 50.7035C427.375 45.0482 410.138 47.4717 401.684 43.7175C393.407 40.043 377.967 30.5104 371.377 26.376L371.382 26.3789Z" fill="#FA9700"/>
<path d="M365.44 29.8095C372.596 33.6172 389.112 42.5286 395.476 47.307C401.979 52.1884 397.781 62.1402 407.576 71.5872C394.401 67.8358 381.46 61.7574 373.148 57.7557C357.734 50.3309 355.041 37.8224 365.445 29.8123L365.44 29.8095Z" fill="#FA9700"/>
<path d="M393.176 54.3082C390.689 55.7446 386.062 55.3163 382.632 53.3358C382.192 53.0818 382.197 52.6682 382.642 52.411C383.088 52.1538 383.804 52.1512 384.244 52.4052C386.695 53.8206 390.058 54.2707 391.59 53.3864C393.122 52.502 392.337 50.5635 389.885 49.1481C389.445 48.8941 389.45 48.4805 389.895 48.2233C390.341 47.9661 391.057 47.9635 391.497 48.2175C394.927 50.198 395.664 52.8718 393.181 54.3053L393.176 54.3082Z" fill="#593A42"/>
<path d="M415.782 41.2566C413.3 42.69 408.668 42.2647 405.238 40.2841C404.798 40.0302 404.803 39.6166 405.248 39.3594C405.694 39.1022 406.41 39.0995 406.85 39.3535C409.302 40.769 412.664 41.2191 414.196 40.3347C415.728 39.4504 414.943 37.5119 412.491 36.0964C412.051 35.8424 412.056 35.4289 412.501 35.1717C412.947 34.9144 413.663 34.9118 414.103 35.1658C417.534 37.1464 418.27 39.8202 415.787 41.2537L415.782 41.2566Z" fill="#593A42"/>
<path d="M441.114 60.0724C444.87 62.2413 444.036 66.239 439.26 68.9962C434.485 71.7533 427.556 72.2381 423.799 70.0692C420.042 67.9003 420.872 63.9055 425.657 61.1425C430.443 58.3796 437.357 57.9035 441.114 60.0724Z" fill="#593A42"/>
<path d="M423.86 63.5382C422.493 64.8642 422.396 66.467 423.47 67.8502C424.22 68.821 426.717 67.9848 425.971 67.0226C425.304 66.1692 425.524 65.1461 426.349 64.3447C427.294 63.4223 424.816 62.6157 423.865 63.5353L423.86 63.5382Z" fill="#936170"/>
<path d="M425.276 68.2458C424.642 68.4577 424.288 69.0047 424.722 69.3764C424.939 69.5595 425.131 69.7454 425.347 69.9284C425.786 70.2973 426.57 70.4725 427.299 70.2343C427.928 70.0253 428.292 69.4725 427.848 69.1066C427.632 68.9236 427.435 68.7347 427.223 68.5546C426.784 68.1857 426 68.0105 425.271 68.2487L425.276 68.2458Z" fill="#936170"/>
<path d="M468.979 99.1307C461.499 92.7308 432.779 65.763 466.928 68.8491C482.015 70.1726 496.273 74.9366 508.74 79.3654C519.443 83.1229 529.742 87.4046 539.767 91.7878L494.395 117.983C485.478 111.893 476.781 105.705 468.979 99.1307Z" fill="#FFF3DB"/>
<path d="M481.672 -21.7102C469.393 -32.3428 459.609 -44.1993 482.67 -53.3584C505.731 -62.5174 523.365 -50.3765 522.79 -50.0441C522.214 -49.7118 564.729 -48.8761 560.297 -38.8803C555.865 -28.8846 530.216 -25.9767 530.216 -25.9767C530.216 -25.9767 521.93 -23.7323 514.868 -23.3763C514.868 -23.3763 539.971 -0.987264 600.083 3.12995C633.378 13.7233 663.189 20.5184 663.189 20.5184L595.571 59.5575C549.125 34.7363 494.331 -10.7487 481.672 -21.7159L481.672 -21.7102Z" fill="#FFF3DB"/>
<path d="M624.254 43.0086L595.581 59.5629C585.557 54.2033 575.136 47.8802 564.839 41.1489C568.947 39.4051 573.892 37.9081 579.215 36.536C597.001 32.083 614.712 34.1292 624.264 43.0085L624.254 43.0086Z" fill="#593A42"/>
<path d="M609.817 51.344C609.817 51.344 559.214 18.2614 517.788 12.4937C476.362 6.7317 467.222 22.8817 470.69 33.219C470.69 33.219 466.994 43.2867 456.69 48.9445C456.69 48.9445 479.654 56.8444 491.616 40.5376C491.616 40.5376 510.151 31.3032 533.865 41.1216C557.574 50.9429 559.304 80.5077 559.304 80.5077L609.817 51.344Z" fill="#FF740C"/>
<path d="M470.496 33.708C486.503 31.8289 491.616 40.5377 491.616 40.5377C479.659 56.8473 456.69 48.9445 456.69 48.9445C465.653 44.0269 469.613 35.7761 470.491 33.7052L470.496 33.708Z" fill="#FFF3DB"/>
<path d="M551.076 38.3307C577.438 43.4469 592.809 51.0844 600.962 56.4566L559.299 80.5107C559.299 80.5107 557.574 50.943 533.86 41.1246C510.151 31.3033 491.611 40.5406 491.611 40.5406C491.611 40.5406 506.577 29.6966 551.071 38.3336L551.076 38.3307Z" fill="#ED4714"/>
<path d="M454.391 51.3623C458.618 51.4387 462.149 50.1249 462.277 48.4244C462.405 46.7295 459.078 45.2943 454.851 45.2178C450.624 45.1413 447.097 46.458 446.969 48.1528C446.841 49.8476 450.168 51.2829 454.396 51.3594L454.391 51.3623Z" fill="#593A42"/>
<path d="M479.86 37.0799C484.202 38.0376 488.317 40.6158 484.965 43.2816C484.408 43.723 483.125 43.3113 483.687 42.867C486.421 40.6888 483.001 38.6852 479.478 37.9055C478.605 37.7134 478.982 36.8849 479.86 37.0799Z" fill="#593A42"/>
<path d="M450.524 46.0664C451.246 45.9461 451.949 45.866 452.705 45.8689C454.615 45.8735 454.452 47.577 452.552 47.5725C452.059 47.5714 451.596 47.6564 451.127 47.7328C449.294 48.0381 448.7 46.3718 450.529 46.0693L450.524 46.0664Z" fill="#936170"/>
<path d="M455.522 45.7152C456.104 45.6757 456.586 45.6883 457.158 45.7523C457.948 45.8442 458.339 46.4056 458.116 46.8142C457.852 47.2919 457.049 47.47 456.265 47.381C456.215 47.3812 456.17 47.3784 456.12 47.3786C455.324 47.4332 454.55 47.2178 454.377 46.7302C454.232 46.3115 454.725 45.7698 455.522 45.7152Z" fill="#936170"/>
<path d="M412.406 93.4843C412.406 93.4843 408.017 90.4418 405.239 87.0574C407.78 87.12 410.337 87.0532 412.852 86.8171L414.473 91.3832L412.401 93.4872L412.406 93.4843Z" fill="#EFDCBD"/>
<path d="M405.243 87.0544C404.409 86.0409 403.724 84.998 403.347 83.9943C403.212 83.6329 403.141 83.2627 403.115 82.8837C402.239 82.4877 401.429 81.9508 401.252 81.3684C401.102 81.0043 401.275 80.5958 402.026 80.596C402.608 80.5967 403.028 80.8853 403.358 81.1339C403.364 81.1195 403.374 81.108 403.369 81.0936C402.553 80.2293 401.259 79.3553 401.2 78.3504C401.21 77.9167 401.606 77.6252 402.37 77.7775C403.299 77.955 403.903 78.6392 404.376 79.0797C404.326 78.5888 403.946 76.0458 404.534 75.4951C405.072 75.0078 405.59 75.3879 405.844 75.7775C406.118 76.1843 406.173 76.6379 406.163 77.0888C408.781 74.6927 412.54 73.0536 415.307 73.7557C421.002 75.1938 411.519 83.0943 411.519 83.0943L412.842 86.8114C410.327 87.0474 407.765 87.1113 405.229 87.0516L405.243 87.0544Z" fill="#FFF3DB"/>
<path d="M394.107 96.5087C394.107 96.5087 391.065 91.3247 393.432 90.9743C395.793 90.6268 397.376 94.6215 397.376 94.6215C397.376 94.6215 399.275 88.3482 402.04 88.9154C404.809 89.4854 402.55 93.6664 402.55 93.6664C402.55 93.6664 414.843 88.9376 418.246 87.989C421.648 87.0404 428.289 86.5911 425.74 90.4314L431.289 95.1784C431.289 95.1784 441.553 87.2205 449.048 90.0047C456.539 92.786 457.827 96.4429 456.64 97.1278C455.454 97.8128 452.803 97.3112 452.803 97.3112C452.803 97.3112 458.743 100.012 457.068 101.664C455.957 102.762 451.868 101.401 451.868 101.401C451.868 101.401 457.067 105.449 454.465 106.842C453.079 107.586 448.852 105.694 448.852 105.694C448.852 105.694 450.002 110.606 446.896 111.212C443.796 111.821 435.539 110.829 435.539 110.829C435.539 110.829 451.574 114.601 455.966 117.819C460.353 121.039 458.424 122.324 454.882 122.337C454.882 122.337 464.567 126.9 468.485 132.931L432.113 153.93C432.113 153.93 397.813 107.394 393.741 102.297C393.741 102.297 383.524 98.1555 385.4 96.2791C387.246 94.4315 394.097 96.503 394.097 96.503L394.107 96.5087Z" fill="#FFF3DB"/>
<path d="M457.215 133.302C453.621 130.742 441.977 125.314 451.334 122.948C447.587 121.755 438.696 119.211 445.961 117.094C442.485 116.544 429.409 114.659 429.718 111.924C429.918 109.976 435.792 110.518 440.683 111.295C437.969 111.127 435.539 110.834 435.539 110.834C435.539 110.834 451.575 114.607 455.966 117.825C460.353 121.045 458.424 122.33 454.882 122.343C454.882 122.343 464.567 126.906 468.485 132.936L450.424 143.364C449.049 142.211 448.083 140.931 447.81 139.525C447.148 136.391 451.507 133.076 457.215 133.296L457.215 133.302Z" fill="#EFDCBD"/>
<path d="M414.338 75.0801C415.965 76.8116 410.147 82.631 410.147 82.631L412.378 91.896C412.378 91.896 405.667 83.7789 405.295 82.8067C404.923 81.8345 412.287 72.9136 414.328 75.0801L414.338 75.0801Z" fill="#FEB8AC"/>
<path d="M374.472 99.9403C374.917 99.7175 375.568 99.7754 376.1 99.8338C376.085 99.8252 376.08 99.8109 376.065 99.7966C374.457 99.4636 372.474 99.3071 371.283 98.5792C370.799 98.2535 370.764 97.8861 371.517 97.7081C372.424 97.4866 373.67 97.7663 374.529 97.9154C373.931 97.5701 370.747 95.8184 370.564 95.1873C370.416 94.6221 371.251 94.7052 371.886 94.8982C372.56 95.0967 373.119 95.4135 373.627 95.7534C372.882 92.9762 373.876 90.3247 376.781 89.7943C382.757 88.7013 384.554 98.1833 384.554 98.1833L396.242 103.227L397.067 105.581C397.067 105.581 385.563 104.575 379.344 101.967C378.829 101.751 378.354 101.5 377.905 101.229C376.785 101.264 375.558 101.174 374.756 100.809C374.231 100.593 373.897 100.227 374.462 99.9403L374.472 99.9403Z" fill="#FFF3DB"/>
<path d="M377.543 91.1529C380.753 91.8218 382.965 98.3644 382.965 98.3644L395.311 103.782C395.311 103.782 380.868 100.916 379.477 100.333C378.085 99.7492 373.508 90.309 377.543 91.1472L377.543 91.1529Z" fill="#FEB8AC"/>
<path d="M416.3 98.4897C416.47 98.8997 416.346 99.2735 415.945 99.5966C414.806 100.517 412.005 100.57 407.607 99.7362C407.393 99.6939 407.28 99.565 407.356 99.4413C407.422 99.3176 407.657 99.2507 407.87 99.2929C412.884 100.24 414.674 99.8281 415.291 99.3291C415.557 99.1184 415.629 98.8827 415.513 98.6074C415.184 97.816 413.393 96.9323 412.222 96.5977C412.059 96.5494 411.965 96.4435 412.011 96.3371C412.052 96.2336 412.212 96.1583 412.401 96.1519C413.685 96.1242 415.012 96.2142 416.467 96.4242C416.711 96.4607 416.964 96.4971 417.222 96.5364C418.528 96.7355 420.008 96.9656 421.229 96.7572C421.652 96.6839 421.942 96.5507 422.084 96.3607C422.25 96.1332 422.204 95.8347 421.938 95.537C421.408 94.8956 420.238 94.5553 419.103 94.2234L418.855 94.1497C418.696 94.1043 418.608 94.0012 418.644 93.8948C418.68 93.7942 418.825 93.7161 419.009 93.7068C419.312 93.6914 419.616 93.6759 419.925 93.6633C421.353 93.5978 422.831 93.5321 424.068 93.1887C424.657 93.0142 424.978 92.8178 425.01 92.6109C425.058 92.3034 424.505 91.8804 423.51 91.4562C423.332 91.3821 423.294 91.2329 423.429 91.1262C423.555 91.0195 423.819 90.9984 424.002 91.0753C424.888 91.4483 425.921 92.0275 425.83 92.6452C425.771 93.0274 425.305 93.3479 424.437 93.6095C423.204 93.95 421.835 94.044 420.492 94.1064C421.374 94.3961 422.211 94.7577 422.682 95.3189C423.055 95.7368 423.115 96.1817 422.843 96.5388C422.747 96.6684 422.611 96.7809 422.441 96.8792C422.191 97.0237 421.861 97.134 421.468 97.2015C420.022 97.4423 418.428 97.1982 417.018 96.9851C416.765 96.943 416.517 96.9094 416.283 96.8729C415.439 96.7496 414.644 96.6721 413.878 96.6347C414.943 97.1104 416.049 97.8014 416.33 98.4838L416.3 98.4897Z" fill="#EFDCBD"/>
<path d="M417.762 105.854C417.643 105.745 417.7 105.604 417.89 105.529C418.079 105.459 418.333 105.49 418.451 105.598C419.032 106.125 419.868 106.567 421.008 106.947C423.213 107.66 424.115 107.579 424.475 107.388C425.171 106.987 423.977 106.043 423.587 105.761C423.035 105.332 422.357 105.027 421.573 104.857C421.399 104.827 421.265 104.801 421.171 104.781C420.972 104.736 420.869 104.607 420.935 104.489C421.006 104.368 421.226 104.304 421.434 104.338C421.588 104.363 421.732 104.389 421.881 104.423C422.755 104.569 424.131 104.682 424.775 104.487C424.945 104.435 425.04 104.368 425.081 104.276C425.132 104.167 425.098 104.078 424.985 103.989C424.393 103.543 422.037 103.362 420.962 103.366C420.734 103.367 420.556 103.264 420.557 103.132C420.558 103 420.739 102.896 420.968 102.895C421.007 102.895 424.588 102.917 425.629 103.697C425.901 103.9 425.983 104.138 425.871 104.385C425.774 104.607 425.523 104.786 425.149 104.899C424.72 105.027 424.167 105.066 423.6 105.057C423.822 105.185 424.035 105.319 424.232 105.474C425.569 106.454 425.859 107.251 425.033 107.728C423.782 108.393 421.388 107.618 420.6 107.36C419.347 106.936 418.417 106.446 417.767 105.856L417.762 105.854Z" fill="#EFDCBD"/>
<path d="M431.693 126.839C431.898 126.789 432.136 126.846 432.224 126.966C432.592 127.49 434.037 128.151 435.426 128.439C436.245 128.605 436.942 128.626 437.371 128.492C437.89 128.318 438.147 128.056 438.17 127.694C438.209 126.878 436.958 125.768 435.858 125.359C435.67 125.291 435.622 125.147 435.737 125.04C435.853 124.928 436.107 124.896 436.29 124.961C438.258 125.64 440.402 126.075 440.782 125.872C440.862 125.826 440.894 125.619 440.501 125.144C439.219 123.652 436.417 122.034 433.828 121.291C433.655 121.243 433.567 121.128 433.622 121.022C433.673 120.913 433.848 120.84 434.042 120.848C435.663 120.905 438.44 120.775 438.598 119.935C438.651 119.677 438.519 119.456 438.188 119.259C437.096 118.594 434.168 118.401 432.909 118.448C432.685 118.458 432.493 118.358 432.484 118.232C432.471 118.103 432.646 117.99 432.87 117.98C434.149 117.933 437.42 118.105 438.779 118.935C439.268 119.235 439.483 119.59 439.399 119.981C439.214 120.984 437.087 121.253 435.509 121.314C437.838 122.195 440.061 123.589 441.22 124.934C441.406 125.158 441.976 125.839 441.345 126.203C441.335 126.209 441.325 126.215 441.315 126.221C440.68 126.559 439.23 126.317 437.965 125.997C438.556 126.518 438.992 127.139 438.966 127.708C438.947 128.096 438.715 128.418 438.279 128.67C438.124 128.759 437.949 128.838 437.749 128.907C437.09 129.111 436.185 129.102 435.133 128.888C433.5 128.552 431.917 127.806 431.456 127.158C431.368 127.038 431.479 126.9 431.683 126.85L431.693 126.839Z" fill="#EFDCBD"/>
<path d="M411.218 120.15C411.235 120.021 411.42 119.92 411.649 119.925C411.867 119.93 412.045 120.038 412.029 120.167C411.928 121.259 412.909 122.496 414.707 122.679C415.354 122.717 415.897 122.609 416.233 122.38C416.594 122.132 416.687 121.764 416.488 121.366C416.439 121.263 416.515 121.156 416.67 121.095C416.834 121.04 417.038 121.054 417.167 121.128C418.561 121.933 420.077 122.501 420.525 122.396C420.755 122.332 420.815 122.258 420.836 122.206C420.999 121.826 420.047 121.103 419.643 120.794L419.534 120.709C419.396 120.606 419.427 120.462 419.617 120.381C419.792 120.303 420.051 120.325 420.184 120.425L420.292 120.51C420.85 120.936 421.886 121.725 421.625 122.321C421.585 122.418 421.494 122.539 421.299 122.652C421.188 122.716 421.038 122.779 420.849 122.832C419.921 123.048 418.401 122.407 417.397 121.902C417.359 122.198 417.172 122.466 416.856 122.683C416.33 123.038 415.542 123.201 414.583 123.145C412.238 122.906 411.1 121.423 411.218 120.15Z" fill="#EFDCBD"/>
<path d="M409.552 111.541C409.466 111.705 409.32 111.846 409.124 111.959C408.929 112.072 408.68 112.159 408.386 112.214C407.937 112.302 407.455 112.272 406.974 112.122C405.849 111.778 404.879 110.826 404.636 110.298C404.578 110.172 404.704 110.042 404.923 110.007C405.142 109.972 405.365 110.043 405.418 110.172C405.598 110.553 406.419 111.42 407.366 111.707C407.649 111.795 407.902 111.814 408.142 111.767C408.481 111.697 408.686 111.584 408.777 111.406C409.072 110.836 408.178 109.794 407.591 109.374C407.453 109.277 407.479 109.136 407.659 109.044C407.834 108.96 408.088 108.979 408.231 109.079C408.823 109.507 409.974 110.721 409.552 111.535L409.552 111.541Z" fill="#EFDCBD"/>
<path d="M404.034 109.39C404.034 109.39 403.999 109.41 403.984 109.419C403.564 109.662 402.966 109.744 402.32 109.637C400.608 109.313 399.866 107.07 399.875 106.272C399.881 106.143 400.062 106.039 400.286 106.035C400.509 106.037 400.687 106.14 400.691 106.269C400.682 107.125 401.492 108.986 402.564 109.188C402.927 109.247 403.23 109.209 403.436 109.073C403.756 108.871 403.835 108.5 403.62 108.168C403.541 108.048 403.647 107.912 403.857 107.866C404.066 107.819 404.299 107.878 404.378 107.999C404.706 108.494 404.565 109.055 404.034 109.39Z" fill="#EFDCBD"/>
<path d="M450.479 127.442C450.703 127.421 450.906 127.51 450.945 127.636C451.198 128.603 453.44 131.383 455.606 131.183C455.9 131.15 456.08 131.063 456.191 130.908C456.419 130.565 456.197 129.974 455.828 129.577C455.724 129.482 455.636 129.402 455.562 129.336C455.444 129.233 455.475 129.09 455.655 129.014C455.835 128.939 456.078 128.958 456.217 129.055C456.315 129.124 456.414 129.215 456.512 129.313C456.621 129.41 456.729 129.519 456.862 129.636C457.728 130.454 459.535 132.162 460.576 132.052C461.084 131.987 461.22 131.828 461.276 131.716C461.713 130.859 459.263 128.803 458.408 128.309C458.25 128.218 458.252 128.069 458.412 127.976C458.572 127.884 458.831 127.883 458.989 127.974C459.651 128.356 462.66 130.666 462.055 131.843C461.989 131.966 461.874 132.108 461.658 132.232C461.443 132.356 461.153 132.455 460.73 132.511C459.545 132.636 458.335 131.822 457.098 130.732C457.082 130.85 457.041 130.965 456.965 131.071C456.758 131.385 456.343 131.585 455.755 131.645C452.882 131.911 450.454 128.792 450.163 127.71C450.129 127.581 450.28 127.46 450.504 127.439L450.479 127.442Z" fill="#FFF3DB"/>
<path d="M425.391 135.483L425.338 135.388C425.264 135.265 425.385 135.133 425.599 135.089C425.809 135.048 426.042 135.113 426.11 135.233L426.164 135.328C426.813 136.477 428.174 138.87 430.36 139.155C430.668 139.188 431.061 139.201 431.211 139.086C431.497 138.864 431.197 138.135 430.514 137.394C430.405 137.28 430.487 137.136 430.681 137.075C430.881 137.011 431.124 137.053 431.232 137.168C431.572 137.531 432.622 138.774 431.865 139.359C431.83 139.385 431.79 139.414 431.75 139.437C431.414 139.631 430.891 139.693 430.181 139.612C427.543 139.269 426.084 136.71 425.391 135.477L425.391 135.483Z" fill="#EFDCBD"/>
<path d="M432.973 136.299C433.167 136.233 433.416 136.266 433.529 136.378C435.345 138.137 437.203 139.285 438.055 139.164C438.473 139.105 438.777 138.645 438.889 137.895C438.911 137.768 439.106 137.667 439.334 137.678C439.558 137.685 439.726 137.8 439.7 137.929C439.587 138.662 439.313 139.151 438.858 139.414C438.678 139.518 438.473 139.585 438.234 139.62C436.41 139.874 433.844 137.606 432.825 136.619C432.712 136.507 432.773 136.363 432.968 136.297L432.973 136.299Z" fill="#EFDCBD"/>
<path d="M435.177 100.348C438.581 101.533 443.929 100.055 447.116 97.0449C450.302 94.0351 450.121 90.6298 446.716 89.4447C443.312 88.2596 437.964 89.7379 434.777 92.7477C431.591 95.7575 431.772 99.1628 435.177 100.348Z" fill="#593A42"/>
<path d="M440.156 90.3101C441.829 89.721 444.133 89.6293 445.787 90.2494C446.699 90.5907 445.651 91.3613 444.749 91.0257C443.768 90.6617 442.136 90.7423 441.157 91.0905C440.233 91.4183 439.217 90.6467 440.151 90.313L440.156 90.3101Z" fill="#936170"/>
<path d="M446.99 90.7818C447.566 90.9291 447.986 91.1889 448.186 91.5356C448.528 92.126 446.952 92.4936 446.61 91.8975C446.547 91.7857 446.507 91.7284 446.324 91.6803C445.332 91.4254 446.003 90.5241 446.99 90.7818Z" fill="#936170"/>
<path d="M427.049 95.7712C427.983 96.3105 429.25 96.4466 429.886 96.0796C430.522 95.7126 430.281 94.9783 429.352 94.4417C428.423 93.9052 427.146 93.7634 426.51 94.1305C425.874 94.4975 426.115 95.2318 427.049 95.7712Z" fill="#593A42"/>
<path d="M419.681 100.025C420.615 100.565 421.882 100.701 422.518 100.334C423.153 99.9668 422.913 99.2325 421.983 98.696C421.054 98.1594 419.777 98.0176 419.142 98.3847C418.506 98.7517 418.747 99.486 419.681 100.025Z" fill="#593A42"/>
</g>
</g>
<defs>
<clipPath id="clip0_110_275">
<rect width="720" height="465" fill="white" transform="translate(526)"/>
</clipPath>
<clipPath id="clip1_110_275">
<rect width="410.76" height="208.589" rx="32.2116" transform="matrix(0.866025 -0.5 0.866025 0.5 678.48 288.641)" fill="white"/>
</clipPath>
<clipPath id="clip2_110_275">
<rect width="763" height="217" fill="white" transform="translate(99 38)"/>
</clipPath>
<clipPath id="clip3_110_275">
<rect width="410.76" height="208.589" rx="32.2116" transform="matrix(0.866025 -0.5 0.866025 0.5 251.48 49.6412)" fill="white"/>
</clipPath>
</defs>
</svg>
