<svg width="41" height="41" viewBox="0 0 41 41" fill="none" xmlns="http://www.w3.org/2000/svg">
<g filter="url(#filter0_d_57_316)">
<path d="M27.2917 4.125C29.1356 4.125 30.9094 4.85375 32.2142 6.16138C33.5205 7.46625 34.2506 9.22625 34.2506 11.0688V21.9312C34.2506 25.7675 31.1294 28.875 27.2917 28.875H13.7081C9.87049 28.875 6.75061 25.7675 6.75061 21.9312V11.0688C6.75061 7.2325 9.85674 4.125 13.7081 4.125H27.2917ZM28.8469 11.275C28.5581 11.2599 28.2831 11.3575 28.0755 11.55L21.8756 16.5C21.0781 17.1614 19.9355 17.1614 19.1256 16.5L12.9381 11.55C12.5105 11.2338 11.9192 11.275 11.5631 11.6462C11.1919 12.0175 11.1506 12.6087 11.4655 13.0212L11.6456 13.2L17.9019 18.0812C18.6719 18.6862 19.6055 19.0162 20.5831 19.0162C21.558 19.0162 22.5081 18.6862 23.2767 18.0812L29.4794 13.1175L29.5894 13.0075C29.918 12.6088 29.918 12.0312 29.5742 11.6325C29.3831 11.4276 29.1205 11.3025 28.8469 11.275Z" fill="#F4D35E"/>
</g>
<defs>
<filter id="filter0_d_57_316" x="0" y="0" width="41" height="41" filterUnits="userSpaceOnUse" color-interpolation-filters="sRGB">
<feFlood flood-opacity="0" result="BackgroundImageFix"/>
<feColorMatrix in="SourceAlpha" type="matrix" values="0 0 0 0 0 0 0 0 0 0 0 0 0 0 0 0 0 0 127 0" result="hardAlpha"/>
<feOffset dy="4"/>
<feGaussianBlur stdDeviation="2"/>
<feComposite in2="hardAlpha" operator="out"/>
<feColorMatrix type="matrix" values="0 0 0 0 0 0 0 0 0 0 0 0 0 0 0 0 0 0 0.25 0"/>
<feBlend mode="normal" in2="BackgroundImageFix" result="effect1_dropShadow_57_316"/>
<feBlend mode="normal" in="SourceGraphic" in2="effect1_dropShadow_57_316" result="shape"/>
</filter>
</defs>
</svg>
